<svg width="36" height="36" viewBox="0 0 36 36" fill="none" xmlns="http://www.w3.org/2000/svg">
<path d="M3.5 30.943L17.85 30.117L32.2 30.943C32.2 33.2627 30.3199 35.143 28 35.143H7.7C5.3802 35.143 3.5 33.2628 3.5 30.943Z" fill="white"/>
<path d="M29.2299 15.4404L26.5111 11.344L9.93506 11.1571L6.47006 15.4404L4.09216 26.0489L17.85 27.0429L31.6078 26.0489L29.2299 15.4404Z" fill="#FEF2CC"/>
<path d="M32.55 26.05C33.9031 26.05 35 27.1469 35 28.5C35 29.854 33.9024 30.95 32.55 30.95C31.0056 30.95 4.68883 30.95 3.14995 30.95C1.79685 30.95 0.699951 29.8531 0.699951 28.5C0.699951 27.146 1.79748 26.05 3.14995 26.05C3.75916 26.05 31.1808 26.05 31.6078 26.05H32.55Z" fill="white"/>
<path d="M20.8201 6.44701L17.85 6.85301L14.8799 6.44701C14.1577 4.41869 15.664 2.24701 17.85 2.24701C20.0234 2.24701 21.5463 4.4077 20.8201 6.44701Z" fill="#FEF2CC"/>
<path d="M12.4592 0.849976H10.8541V2.45508C10.8541 4.66148 12.6426 6.44998 14.849 6.44998H14.884L15.9459 2.89398C15.262 1.67388 13.9572 0.849976 12.4592 0.849976Z" fill="#FEF2CC"/>
<path d="M23.2509 0.849976C21.7529 0.849976 20.4481 1.67388 19.7642 2.89398L20.8261 6.44998H20.8611C23.0675 6.44998 24.856 4.66148 24.856 2.45508V0.849976H23.2509Z" fill="#FEF2CC"/>
<path d="M30.1271 13.5116C30.391 14.3229 29.9542 15.1517 29.2199 15.4415C28.2141 15.8423 27.0898 15.1022 27.0898 13.9932V13.9001C27.0898 12.8781 26.2617 12.05 25.2397 12.05C24.2188 12.05 23.3903 12.878 23.3903 13.9001V14.3999C23.3903 15.4219 22.5615 16.25 21.5402 16.25C20.5184 16.25 19.6901 15.4219 19.6901 14.3999V13.9001C19.6901 12.8781 18.862 12.05 17.84 12.05C16.8182 12.05 15.9899 12.8781 15.9899 13.9001V15.7999C15.9899 16.8219 15.1618 17.65 14.1398 17.65C13.1181 17.65 12.2897 16.822 12.2897 15.7999V13.9001C12.2897 12.8781 11.4616 12.05 10.4403 12.05C9.41846 12.05 8.59022 12.8781 8.59022 13.9001V13.9932C8.59022 14.8528 7.89302 15.55 7.03342 15.55C6.15975 15.55 5.47522 14.8373 5.47522 13.9953C5.47522 13.5584 5.47466 13.8381 7.50032 7.52521C7.70892 6.88401 8.30672 6.45001 8.98082 6.45001C10.9839 6.45001 23.9926 6.45001 26.6992 6.45001C27.3733 6.45001 27.9711 6.88401 28.1797 7.52521L30.1271 13.5116Z" fill="#C1741A"/>
<path d="M35.7 28.5C35.7 26.7631 34.2869 25.35 32.55 25.35H32.1683L30.0253 15.7896C30.7503 15.235 31.1158 14.2577 30.8027 13.2953L28.8554 7.30878C28.5522 6.37638 27.6898 5.75002 26.7094 5.75002H24.1956C25.0324 4.90176 25.55 3.73794 25.55 2.45512V0.850024C25.55 0.463484 25.2365 0.150024 24.85 0.150024H23.2449C21.7937 0.150024 20.4358 0.823494 19.5534 1.94489C19.0462 1.69359 18.4704 1.55002 17.85 1.55002C17.2299 1.55002 16.6542 1.69366 16.1466 1.9451C15.2643 0.823564 13.9063 0.150024 12.4551 0.150024H10.85C10.4635 0.150024 10.15 0.463484 10.15 0.850024V2.45512C10.15 3.73794 10.6676 4.90176 11.5044 5.75002H8.99059C8.01017 5.75002 7.14777 6.37638 6.8446 7.30864L4.89727 13.2953C4.5843 14.2575 4.9497 15.235 5.67469 15.7895L3.53171 25.35H3.15C1.41309 25.35 0 26.7631 0 28.5C0 30.1354 1.25272 31.4832 2.84893 31.6353C3.18339 34.0138 5.23075 35.85 7.7 35.85H28C30.4693 35.85 32.5166 34.0138 32.8511 31.6353C34.4473 31.4832 35.7 30.1354 35.7 28.5ZM23.2449 1.55002H24.15V2.45512C24.15 3.98168 23.1064 5.2687 21.6952 5.6411C21.7632 4.57213 21.3715 3.54495 20.6739 2.78706C21.2938 2.01412 22.2368 1.55002 23.2449 1.55002ZM20.2763 5.75002H15.4236C15.2128 4.32041 16.324 2.95002 17.85 2.95002C19.3769 2.95002 20.487 4.32125 20.2763 5.75002ZM11.55 1.55002H12.4551C13.4632 1.55002 14.4063 2.01419 15.0261 2.78713C14.3286 3.54467 13.9364 4.57143 14.0046 5.64103C12.5936 5.26856 11.55 3.98161 11.55 2.45512V1.55002ZM6.2286 13.7284L8.17593 7.74173C8.29101 7.38781 8.6184 7.15009 8.99059 7.15009C10.6712 7.15009 25.0281 7.15009 26.7093 7.15009C27.0815 7.15009 27.4089 7.38781 27.524 7.7418L29.4713 13.7283C29.6517 14.2825 29.2393 14.85 28.6566 14.85C28.1842 14.85 27.7999 14.4657 27.7999 13.9934C27.7969 13.9863 27.6023 11.35 25.2499 11.35C23.8439 11.35 22.7 12.494 22.7 13.9001V14.4001C22.7 15.0342 22.184 15.5501 21.5499 15.5501C20.9158 15.5501 20.3999 15.0342 20.3999 14.4001V13.9001C20.4 12.494 19.2561 11.35 17.85 11.35C16.4439 11.35 15.3 12.494 15.3 13.9001V15.8001C15.3 16.4342 14.7841 16.9501 14.1499 16.9501C13.5158 16.9501 12.9999 16.4342 12.9999 15.8001V13.9001C12.9999 12.494 11.856 11.35 10.45 11.35C7.9317 11.35 7.903 13.9864 7.89992 13.9934C7.89992 14.4657 7.51562 14.85 7.04326 14.85C6.46058 14.85 6.04835 14.2824 6.2286 13.7284ZM7.00651 16.2489C7.01883 16.2491 7.03094 16.25 7.0434 16.25C9.27829 16.25 9.29705 13.9071 9.30006 13.9001C9.30006 13.2659 9.81596 12.75 10.4501 12.75C11.0842 12.75 11.6 13.2659 11.6 13.9001V15.8001C11.6 17.2062 12.744 18.3501 14.1501 18.3501C15.5562 18.3501 16.7001 17.2062 16.7001 15.8001V13.9001C16.7001 13.2659 17.216 12.75 17.8501 12.75C18.4843 12.75 19.0002 13.2659 19.0002 13.9001V14.4001C19.0002 15.8062 20.1441 16.9501 21.5502 16.9501C22.9563 16.9501 24.1002 15.8062 24.1002 14.4001V13.9001C24.1002 13.2659 24.6161 12.75 25.2502 12.75C25.8843 12.75 26.4002 13.2659 26.4002 13.9001C26.4032 13.9071 26.4321 16.285 28.6938 16.2489L30.7336 25.35H4.96643L7.00651 16.2489ZM28 34.45H7.7C6.00978 34.45 4.5955 33.2456 4.27035 31.65H31.4296C31.1045 33.2456 29.6902 34.45 28 34.45ZM32.55 30.25C31.0057 30.25 4.68888 30.25 3.15 30.25C2.18505 30.25 1.4 29.465 1.4 28.5C1.4 27.5351 2.18505 26.75 3.15 26.75C4.60887 26.75 31.0911 26.75 32.55 26.75C33.515 26.75 34.3 27.5351 34.3 28.5C34.3 29.465 33.515 30.25 32.55 30.25Z" fill="#C1741A"/>
</svg>
