<svg width="116" height="37" viewBox="0 0 116 37" fill="none" xmlns="http://www.w3.org/2000/svg">
<path d="M4.27002 30.943L18.62 30.117L32.97 30.943C32.97 33.2627 31.0899 35.143 28.77 35.143H8.47002C6.15022 35.143 4.27002 33.2628 4.27002 30.943Z" fill="white"/>
<path d="M29.9999 15.4404L27.2811 11.344L10.7051 11.1571L7.24008 15.4404L4.86218 26.0489L18.62 27.0429L32.3778 26.0489L29.9999 15.4404Z" fill="#FEF2CC"/>
<path d="M33.32 26.05C34.6731 26.05 35.77 27.1469 35.77 28.5C35.77 29.854 34.6724 30.95 33.32 30.95C31.7756 30.95 5.45885 30.95 3.91997 30.95C2.56687 30.95 1.46997 29.8531 1.46997 28.5C1.46997 27.146 2.5675 26.05 3.91997 26.05C4.52918 26.05 31.9508 26.05 32.3778 26.05H33.32Z" fill="white"/>
<path d="M21.5901 6.44701L18.62 6.85301L15.6499 6.44701C14.9277 4.41869 16.434 2.24701 18.62 2.24701C20.7934 2.24701 22.3163 4.4077 21.5901 6.44701Z" fill="#FEF2CC"/>
<path d="M13.2292 0.849976H11.6241V2.45508C11.6241 4.66148 13.4126 6.44998 15.619 6.44998H15.654L16.7159 2.89398C16.032 1.67388 14.7272 0.849976 13.2292 0.849976Z" fill="#FEF2CC"/>
<path d="M24.0209 0.849976C22.5229 0.849976 21.2181 1.67388 20.5342 2.89398L21.5961 6.44998H21.6311C23.8375 6.44998 25.626 4.66148 25.626 2.45508V0.849976H24.0209Z" fill="#FEF2CC"/>
<path d="M30.8971 13.5116C31.161 14.3229 30.7242 15.1517 29.9899 15.4415C28.9841 15.8423 27.8598 15.1022 27.8598 13.9932V13.9001C27.8598 12.8781 27.0317 12.05 26.0097 12.05C24.9888 12.05 24.1603 12.878 24.1603 13.9001V14.3999C24.1603 15.4219 23.3315 16.25 22.3102 16.25C21.2884 16.25 20.4601 15.4219 20.4601 14.3999V13.9001C20.4601 12.8781 19.632 12.05 18.61 12.05C17.5882 12.05 16.7599 12.8781 16.7599 13.9001V15.7999C16.7599 16.8219 15.9318 17.65 14.9098 17.65C13.8881 17.65 13.0597 16.822 13.0597 15.7999V13.9001C13.0597 12.8781 12.2316 12.05 11.2103 12.05C10.1885 12.05 9.36024 12.8781 9.36024 13.9001V13.9932C9.36024 14.8528 8.66304 15.55 7.80344 15.55C6.92977 15.55 6.24524 14.8373 6.24524 13.9953C6.24524 13.5584 6.24468 13.8381 8.27034 7.52521C8.47894 6.88401 9.07674 6.45001 9.75084 6.45001C11.7539 6.45001 24.7626 6.45001 27.4692 6.45001C28.1433 6.45001 28.7411 6.88401 28.9497 7.52521L30.8971 13.5116Z" fill="#C1741A"/>
<path d="M36.47 28.5C36.47 26.7631 35.0569 25.35 33.32 25.35H32.9383L30.7953 15.7896C31.5203 15.235 31.8858 14.2577 31.5727 13.2953L29.6254 7.30878C29.3222 6.37638 28.4598 5.75002 27.4794 5.75002H24.9656C25.8024 4.90176 26.32 3.73794 26.32 2.45512V0.850024C26.32 0.463484 26.0066 0.150024 25.62 0.150024H24.0149C22.5638 0.150024 21.2058 0.823494 20.3235 1.94489C19.8162 1.69359 19.2404 1.55002 18.62 1.55002C18 1.55002 17.4242 1.69366 16.9166 1.9451C16.0344 0.823564 14.6764 0.150024 13.2251 0.150024H11.62C11.2335 0.150024 10.92 0.463484 10.92 0.850024V2.45512C10.92 3.73794 11.4377 4.90176 12.2744 5.75002H9.76061C8.78019 5.75002 7.91779 6.37638 7.61462 7.30864L5.66729 13.2953C5.35432 14.2575 5.71972 15.235 6.44471 15.7895L4.30173 25.35H3.92002C2.18311 25.35 0.77002 26.7631 0.77002 28.5C0.77002 30.1354 2.02274 31.4832 3.61895 31.6353C3.95341 34.0138 6.00077 35.85 8.47002 35.85H28.77C31.2393 35.85 33.2866 34.0138 33.6211 31.6353C35.2173 31.4832 36.47 30.1354 36.47 28.5ZM24.0149 1.55002H24.92V2.45512C24.92 3.98168 23.8764 5.2687 22.4653 5.6411C22.5332 4.57213 22.1415 3.54495 21.444 2.78706C22.0638 2.01412 23.0069 1.55002 24.0149 1.55002ZM21.0464 5.75002H16.1936C15.9828 4.32041 17.094 2.95002 18.62 2.95002C20.1469 2.95002 21.257 4.32125 21.0464 5.75002ZM12.32 1.55002H13.2251C14.2333 1.55002 15.1764 2.01419 15.7961 2.78713C15.0987 3.54467 14.7065 4.57143 14.7746 5.64103C13.3636 5.26856 12.32 3.98161 12.32 2.45512V1.55002ZM6.99862 13.7284L8.94595 7.74173C9.06103 7.38781 9.38842 7.15009 9.76061 7.15009C11.4412 7.15009 25.7981 7.15009 27.4794 7.15009C27.8515 7.15009 28.1789 7.38781 28.294 7.7418L30.2414 13.7283C30.4217 14.2825 30.0093 14.85 29.4266 14.85C28.9543 14.85 28.57 14.4657 28.57 13.9934C28.5669 13.9863 28.3723 11.35 26.0199 11.35C24.6139 11.35 23.47 12.494 23.47 13.9001V14.4001C23.47 15.0342 22.9541 15.5501 22.3199 15.5501C21.6858 15.5501 21.1699 15.0342 21.1699 14.4001V13.9001C21.17 12.494 20.0261 11.35 18.62 11.35C17.2139 11.35 16.07 12.494 16.07 13.9001V15.8001C16.07 16.4342 15.5541 16.9501 14.92 16.9501C14.2858 16.9501 13.7699 16.4342 13.7699 15.8001V13.9001C13.7699 12.494 12.626 11.35 11.22 11.35C8.70172 11.35 8.67302 13.9864 8.66994 13.9934C8.66994 14.4657 8.28564 14.85 7.81328 14.85C7.2306 14.85 6.81837 14.2824 6.99862 13.7284ZM7.77653 16.2489C7.78885 16.2491 7.80096 16.25 7.81342 16.25C10.0483 16.25 10.0671 13.9071 10.0701 13.9001C10.0701 13.2659 10.586 12.75 11.2201 12.75C11.8542 12.75 12.3701 13.2659 12.3701 13.9001V15.8001C12.3701 17.2062 13.514 18.3501 14.9201 18.3501C16.3262 18.3501 17.4701 17.2062 17.4701 15.8001V13.9001C17.4701 13.2659 17.986 12.75 18.6202 12.75C19.2543 12.75 19.7702 13.2659 19.7702 13.9001V14.4001C19.7702 15.8062 20.9141 16.9501 22.3202 16.9501C23.7263 16.9501 24.8702 15.8062 24.8702 14.4001V13.9001C24.8702 13.2659 25.3861 12.75 26.0202 12.75C26.6543 12.75 27.1702 13.2659 27.1702 13.9001C27.1732 13.9071 27.2022 16.285 29.4638 16.2489L31.5036 25.35H5.73645L7.77653 16.2489ZM28.77 34.45H8.47002C6.7798 34.45 5.36552 33.2456 5.04037 31.65H32.1997C31.8745 33.2456 30.4602 34.45 28.77 34.45ZM33.32 30.25C31.7757 30.25 5.4589 30.25 3.92002 30.25C2.95507 30.25 2.17002 29.465 2.17002 28.5C2.17002 27.5351 2.95507 26.75 3.92002 26.75C5.37889 26.75 31.8611 26.75 33.32 26.75C34.285 26.75 35.07 27.5351 35.07 28.5C35.07 29.465 34.285 30.25 33.32 30.25Z" fill="#C1741A"/>
<path d="M55.976 7.816H55.8V8.056H56.168V8.136H56.024L55.976 8.456H56.152C56.1413 8.47733 56.136 8.504 56.136 8.536H55.912C55.9013 8.58933 55.8907 8.64267 55.88 8.696C55.8693 8.74933 55.8533 8.80267 55.832 8.856C55.832 8.89867 55.8213 8.952 55.8 9.016H55.64L55.544 9.256H55.528C55.5173 9.30933 55.496 9.36267 55.464 9.416C55.432 9.46933 55.4053 9.52267 55.384 9.576H55.416L55.368 9.656H55.512C55.48 9.70933 55.448 9.76267 55.416 9.816C55.384 9.86933 55.3467 9.92267 55.304 9.976H55.416C55.3733 10.0293 55.3253 10.0827 55.272 10.136C55.2293 10.1893 55.1813 10.2427 55.128 10.296H55.096C55.032 10.3493 54.968 10.4027 54.904 10.456C54.8507 10.5093 54.7867 10.5627 54.712 10.616H54.616C54.5307 10.6693 54.44 10.7227 54.344 10.776C54.2587 10.8293 54.168 10.8827 54.072 10.936H54.12C54.0987 10.9467 54.072 10.9573 54.04 10.968C54.008 10.9787 53.9813 10.9947 53.96 11.016H53.944C53.7413 11.112 53.5173 11.192 53.272 11.256C53.1547 11.288 53.032 11.32 52.904 11.352C52.776 11.3733 52.648 11.3947 52.52 11.416H52.504C52.0773 11.48 51.624 11.512 51.144 11.512H50.024V11.656H50.136V11.976H50.328V12.056H49.944V12.216H50.088V12.456H49.688V12.536H50.184V12.856H50.04V13.256H50.104V13.496H49.912V13.816H49.832V13.976H50.36V14.216H49.912V14.536H50.216V14.568C50.216 14.6213 50.2107 14.664 50.2 14.696H50.104C50.104 14.7067 50.0933 14.7333 50.072 14.776H50.12C50.1093 14.7973 50.088 14.824 50.056 14.856H50.072C50.0293 14.8987 49.9973 14.9253 49.976 14.936H49.992C49.9387 14.9787 49.864 15 49.768 15H46.472C46.376 15 46.3013 14.9787 46.248 14.936H46.216C46.1947 14.9253 46.1627 14.8987 46.12 14.856C46.1093 14.8347 46.0987 14.8187 46.088 14.808C46.0773 14.7973 46.072 14.7867 46.072 14.776H46.024C46.0027 14.7333 45.992 14.7067 45.992 14.696H46.072C46.0613 14.664 46.056 14.6213 46.056 14.568V14.536H45.752V14.216H46.2V13.976H45.672V13.816H45.752V13.496H45.944V13.256H45.88V12.856H46.024V12.536H45.528V12.456H45.928V12.216H45.784V12.056H46.168V11.976H45.976V11.656H45.864V11.416H45.88V10.936H45.848V10.616H45.944V10.296H45.992V9.976H45.88V9.656H45.736V9.576H45.704V9.256H45.72V9.016H45.88V8.536H45.832V8.456H45.784V8.136H45.96V8.056H45.896V7.816H45.96V7.656H45.944V7.496H45.496V7.176H43.72V6.936H44.536V6.616H45.992V6.456H45.384V6.136H45.016V5.896H45.256V5.816H44.92V5.496H46.152V5.416H45.992V5.176H45.624V4.936H45.112V4.616H46.264V4.376H45.704V4.296H45.592V4.216H45.88C45.88 4.17333 45.8907 4.12 45.912 4.056H45.736C45.7467 4.024 45.7627 3.99733 45.784 3.976C45.8053 3.944 45.8267 3.91733 45.848 3.896H46.824C46.9093 3.832 47 3.8 47.096 3.8H51.944C52.4133 3.8 52.8453 3.832 53.24 3.896H52.28C52.408 3.91733 52.5307 3.944 52.648 3.976C52.776 3.99733 52.8933 4.024 53 4.056H53.192C53.2773 4.07733 53.3573 4.104 53.432 4.136C53.5173 4.15733 53.5973 4.184 53.672 4.216H53.384C53.416 4.22667 53.448 4.23733 53.48 4.248C53.512 4.25867 53.544 4.27467 53.576 4.296H53.672L53.848 4.376H54.424L54.84 4.616H53.672C53.7573 4.65867 53.832 4.712 53.896 4.776C53.96 4.82933 54.024 4.88267 54.088 4.936H54.6L54.84 5.176H55.208C55.24 5.21867 55.272 5.26133 55.304 5.304C55.3467 5.336 55.3787 5.37333 55.4 5.416H55.56C55.592 5.448 55.6133 5.47467 55.624 5.496H54.392C54.424 5.53867 54.456 5.592 54.488 5.656C54.52 5.70933 54.552 5.76267 54.584 5.816H54.92L54.952 5.896H54.728L54.824 6.136H55.208L55.304 6.456H55.912L55.96 6.616H54.504C54.5253 6.65867 54.536 6.712 54.536 6.776C54.5467 6.82933 54.5573 6.88267 54.568 6.936H56.616C56.6267 6.97867 56.632 7.02133 56.632 7.064C56.632 7.096 56.6373 7.13333 56.648 7.176H56.568C56.5787 7.22933 56.584 7.28267 56.584 7.336C56.5947 7.38933 56.6 7.44267 56.6 7.496H55.976V7.816ZM51.96 8.056H51.592L51.64 7.816H51.816V7.656C51.816 7.63467 51.816 7.608 51.816 7.576C51.816 7.544 51.8107 7.51733 51.8 7.496H52.424C52.4133 7.44267 52.4027 7.38933 52.392 7.336C52.3813 7.272 52.3653 7.21867 52.344 7.176H52.408C52.3867 7.09067 52.3333 7.01067 52.248 6.936H50.2C50.072 6.82933 49.9173 6.776 49.736 6.776H48.616V6.936H47.8V7.176H49.576V7.496H50.024V7.656H50.04V7.816H49.976V8.056H50.04V8.136H49.864V8.456H49.912V8.536H49.96V8.552H51.08C51.144 8.552 51.192 8.54667 51.224 8.536H51.448C51.4907 8.52533 51.528 8.51467 51.56 8.504C51.592 8.48267 51.624 8.46667 51.656 8.456H51.496C51.624 8.38133 51.72 8.27467 51.784 8.136H51.928C51.9493 8.09333 51.96 8.06667 51.96 8.056ZM66.3933 8.376H66.1213V8.616H66.1853V8.856H66.5373V9.016H66.3453V9.336H66.2973V9.416H66.3613V9.736H66.1053V9.896H65.5933V10.056H65.9773V10.296H66.2333V10.456H66.3133V10.776H66.3613V11.256H66.3453V11.496H66.3133V11.816H66.8093V12.056H66.0413V12.456H66.3773V12.536H66.5053V12.616H66.1053V12.856H65.9933V13.176H66.3773V13.496H66.2653V13.736H66.3773V13.896H66.3453V14.216H66.3293V14.536H66.3613V14.616H66.3453C66.3239 14.7227 66.2866 14.8027 66.2333 14.856H66.5053C66.4413 14.952 66.3346 15 66.1853 15H63.3853C63.2573 15 63.1506 14.952 63.0653 14.856H62.7933C62.7399 14.8027 62.7026 14.7227 62.6813 14.616H62.6973V14.536H62.6653V14.216H62.6813V14.04C62.6493 14.104 62.6066 14.1627 62.5533 14.216H62.5853C62.4786 14.344 62.3666 14.4507 62.2493 14.536H62.2173C62.2066 14.5467 62.1906 14.5573 62.1693 14.568C62.1479 14.5787 62.1266 14.5947 62.1053 14.616H62.0733C61.9346 14.712 61.7906 14.792 61.6413 14.856H61.9133C61.6573 14.9733 61.3799 15.0533 61.0813 15.096H60.8733C60.7453 15.1173 60.6119 15.1333 60.4733 15.144C60.3453 15.1547 60.2066 15.16 60.0573 15.16C59.9506 15.16 59.8439 15.1547 59.7373 15.144C59.6306 15.1333 59.5186 15.1173 59.4013 15.096H59.6093C59.3533 15.0427 59.1133 14.9627 58.8893 14.856H58.6173C58.4573 14.7813 58.3186 14.7013 58.2013 14.616H58.2493C58.2386 14.5947 58.2226 14.5787 58.2013 14.568C58.1799 14.5573 58.1586 14.5467 58.1373 14.536H58.1693C58.1159 14.4827 58.0573 14.4293 57.9933 14.376C57.9399 14.3227 57.8866 14.2693 57.8333 14.216H57.8013C57.7586 14.1627 57.7159 14.1093 57.6733 14.056C57.6306 14.0027 57.5879 13.9493 57.5453 13.896H57.5773C57.5666 13.8747 57.5506 13.848 57.5293 13.816C57.5079 13.784 57.4866 13.7573 57.4653 13.736H57.3533C57.3426 13.6933 57.3213 13.656 57.2893 13.624C57.2679 13.5813 57.2466 13.5387 57.2253 13.496H57.3533C57.2999 13.3787 57.2573 13.272 57.2253 13.176H56.8413C56.8306 13.1227 56.8146 13.0693 56.7933 13.016C56.7719 12.9627 56.7559 12.9093 56.7453 12.856H56.8413L56.7933 12.616H57.1933C57.1826 12.5947 57.1773 12.568 57.1773 12.536H57.0333C57.0333 12.504 57.0279 12.4773 57.0173 12.456H56.6973C56.6866 12.4347 56.6813 12.408 56.6813 12.376C56.6813 12.344 56.6759 12.3173 56.6653 12.296H57.5133C57.5026 12.2533 57.4973 12.216 57.4973 12.184C57.4973 12.1413 57.4919 12.0987 57.4813 12.056H57.2893C57.2786 12.0133 57.2733 11.976 57.2733 11.944C57.2733 11.9013 57.2733 11.8587 57.2733 11.816H57.0013V11.496H56.9053V11.256H56.8573V11.096H56.8893V10.456H56.8253V10.296H56.6813V10.056H56.8573V9.896H56.9693V9.736H56.9853V9.416H56.9213V9.336H56.9693V9.016H57.2733V8.856H56.9853V8.616H56.8893V8.376H56.8413V8.056H57.2413V7.896H57.5293V7.736H57.3693V7.576H57.0173V7.496H56.9213V7.336H56.9053V7.112C56.9053 7.09067 56.9053 7.07467 56.9053 7.064C56.9159 7.04267 56.9213 7.02667 56.9213 7.016H56.9053C56.9479 6.792 57.0866 6.68 57.3213 6.68H60.3773C60.6226 6.68 60.7613 6.792 60.7933 7.016H60.8253V7.336H60.8413V7.496H60.9373V7.576H61.2893V7.736H61.4493V7.896H61.1613V8.056H60.7613V8.376H60.8093V8.616H60.9053V8.856H61.1933V9.016H60.8893V9.336H60.8413V9.416H60.9053V9.736H60.8893V9.896H60.7773V10.056H60.6013V10.296H60.7453V10.456H60.8093V11.096H60.7773V11.256H60.8253V11.416C60.8253 11.448 60.8306 11.4747 60.8413 11.496H60.9213C60.9213 11.6133 60.9373 11.72 60.9693 11.816H61.2413C61.2733 11.9013 61.3159 11.9813 61.3693 12.056H61.5773C61.6306 12.12 61.6946 12.168 61.7693 12.2C61.8439 12.168 61.9026 12.12 61.9453 12.056H62.7133C62.7666 11.9813 62.8093 11.9013 62.8413 11.816H62.3613C62.3933 11.72 62.4093 11.6133 62.4093 11.496H62.4413V11.256H62.4573V10.776H62.4093V10.456H62.3293V10.296H62.0733V10.056H61.6893V9.896H62.2013V9.736H62.4573V9.416H62.3933V9.336H62.4413V9.016H62.6333V8.856H62.2813V8.616H62.2173V8.376H62.4893V8.056H62.8253V7.896H63.2413V7.736H62.7133V7.576H62.4413V7.496H62.3773V7.336H62.4413V7.112C62.4413 7.06933 62.4466 7.03733 62.4573 7.016H62.3453C62.3986 6.792 62.5426 6.68 62.7773 6.68H65.8173C66.0413 6.68 66.1799 6.792 66.2333 7.016H66.3293C66.3399 7.03733 66.3453 7.06933 66.3453 7.112V7.336H66.2812V7.496H66.3453V7.576H66.6173V7.736H67.1453V7.896H66.7293V8.056H66.3933V8.376ZM76.7585 12.456H76.1185V12.616H76.1665V12.776H78.1665V13.096H77.3825V13.256H76.2945V13.496H77.9905V13.656H77.0465V13.736H76.9185V14.056H76.3585V14.216H76.8705V14.376H76.4065V14.568C76.4065 14.5893 76.4012 14.6107 76.3905 14.632C76.3905 14.6533 76.3905 14.6747 76.3905 14.696H76.7745C76.7745 14.7067 76.7638 14.7333 76.7425 14.776H76.8705C76.7958 14.9253 76.6732 15 76.5025 15H73.7825C73.6225 15 73.4945 14.9253 73.3985 14.776H73.2705L73.2225 14.696H72.8385C72.8278 14.6747 72.8225 14.648 72.8225 14.616L72.6945 14.696H72.8385L72.7105 14.776H73.2065C73.0358 14.872 72.8438 14.952 72.6305 15.016H72.5505C72.4972 15.0267 72.4385 15.0373 72.3745 15.048C72.3212 15.0693 72.2678 15.0853 72.2145 15.096H72.1345C72.0172 15.1173 71.8945 15.1333 71.7665 15.144C71.6492 15.1547 71.5265 15.16 71.3985 15.16C71.2598 15.16 71.1265 15.1547 70.9985 15.144C70.8705 15.1333 70.7478 15.1173 70.6305 15.096H70.7105C70.6572 15.0853 70.5985 15.0693 70.5345 15.048C70.4705 15.0373 70.4118 15.0267 70.3585 15.016H70.4385C70.2145 14.952 70.0118 14.872 69.8305 14.776H69.3345L69.1905 14.696H69.0465C68.9718 14.6427 68.8972 14.5947 68.8225 14.552C68.7585 14.4987 68.6945 14.44 68.6305 14.376H69.1105L68.9505 14.216H67.9585L67.8145 14.056H68.3905C68.3052 13.9493 68.2305 13.8427 68.1665 13.736H68.2945L68.2465 13.656H69.1745C69.1532 13.6027 69.1265 13.5493 69.0945 13.496H67.3985L67.3025 13.256H68.3745L68.3265 13.096H69.1105L69.0145 12.776H67.0145L66.9665 12.616H66.9345C66.9132 12.552 66.9025 12.4987 66.9025 12.456H67.5265C67.5158 12.4027 67.5052 12.3493 67.4945 12.296C67.4838 12.2427 67.4732 12.1893 67.4625 12.136H68.4225C68.4118 12.1147 68.4065 12.088 68.4065 12.056C68.4065 12.024 68.4065 11.9973 68.4065 11.976H67.9105C67.9105 11.9333 67.9052 11.896 67.8945 11.864C67.8945 11.8213 67.8945 11.7787 67.8945 11.736H67.5745C67.5745 11.6933 67.5745 11.656 67.5745 11.624C67.5745 11.5813 67.5692 11.5387 67.5585 11.496H67.5265V11.416C67.5265 11.3733 67.5212 11.336 67.5105 11.304C67.5105 11.2613 67.5105 11.2187 67.5105 11.176H67.2705C67.2598 11.1333 67.2545 11.096 67.2545 11.064C67.2545 11.0213 67.2545 10.9787 67.2545 10.936H67.5585V10.616H67.6385V10.536H67.6705V10.216H68.0065V10.2C68.0065 10.1467 68.0065 10.0933 68.0065 10.04C68.0065 9.98667 68.0118 9.93867 68.0225 9.896H67.1585C67.1692 9.85333 67.1745 9.816 67.1745 9.784C67.1745 9.74133 67.1798 9.69867 67.1905 9.656H67.8625V9.576H67.8945C67.9052 9.55467 67.9105 9.528 67.9105 9.496C67.9105 9.464 67.9158 9.43733 67.9265 9.416H67.9745L68.0225 9.176H67.6705L67.7025 9.096H67.6545C67.6652 9.05333 67.6758 9.016 67.6865 8.984C67.6972 8.94133 67.7078 8.89867 67.7185 8.856H67.8145C67.8358 8.80267 67.8518 8.74933 67.8625 8.696C67.8838 8.632 67.9052 8.57867 67.9265 8.536H67.8945L67.9265 8.456C67.9478 8.40267 67.9692 8.34933 67.9905 8.296C68.0225 8.232 68.0545 8.17867 68.0865 8.136L68.2305 7.896H68.0705L68.1825 7.736H67.9745C68.0172 7.69333 68.0598 7.64 68.1025 7.576H68.6625C68.6838 7.55467 68.7052 7.528 68.7265 7.496C68.7585 7.464 68.7905 7.43733 68.8225 7.416H68.2625C68.3372 7.34133 68.3958 7.288 68.4385 7.256H68.9345C69.0518 7.16 69.1638 7.08 69.2705 7.016H69.0945C69.3078 6.888 69.5372 6.78133 69.7825 6.696H69.5425C69.9265 6.57867 70.3158 6.52 70.7105 6.52C71.1158 6.52 71.4945 6.57867 71.8465 6.696H72.0865C72.3212 6.77067 72.5398 6.87733 72.7425 7.016H73.5905V6.696H73.2385V6.376H73.7185V6.136H73.7025V5.816H72.9985V5.656H73.1425V5.496H73.2545V5.416H73.1585V5.336H73.1105V5.256H73.0945V5.176H73.0465V5.096H73.0145V4.776H72.6785V4.456H73.0465V4.376H73.0945V4.056C73.0945 4.01333 73.1052 3.96 73.1265 3.896H73.2865C73.3612 3.72533 73.4945 3.64 73.6865 3.64H76.6465C76.8385 3.64 76.9718 3.72533 77.0465 3.896H76.8705C76.9025 3.93867 76.9185 3.99733 76.9185 4.072V4.376H76.8705V4.456H76.5025V4.776H76.8385V5.096H76.8705V5.176H76.9185V5.256H76.9345V5.336H76.9825V5.416H77.0785V5.496H76.9665V5.656H76.8225V5.816H77.5265V6.136H77.5425V6.376H77.0625V6.696H77.4145V7.016H76.6465V7.256H76.5665V7.416H77.1265V7.576H76.5665V7.736H76.7585V7.896H76.9345V8.136H76.9185V8.536H76.9505V8.856H76.8545V9.096H76.8865V9.176H77.2385V9.416H77.6225V9.576H77.1745V9.656H76.8865V9.896H77.1905V10.216H76.2145V10.536H76.3265V10.616H76.8065V10.696H76.9505V10.936H76.7905V11.176H77.0145V11.416H77.0305V11.496H76.8545V11.736H76.9825V11.976H78.3425V12.136H76.7585V12.456ZM72.4385 11.976C72.4598 12.008 72.4812 12.04 72.5025 12.072C72.5238 12.0933 72.5452 12.1147 72.5665 12.136H71.6065C71.7345 12.2427 71.9105 12.296 72.1345 12.296C72.3478 12.296 72.5238 12.2427 72.6625 12.136H74.2465C74.2678 12.1147 74.2892 12.0933 74.3105 12.072C74.3425 12.04 74.3638 12.008 74.3745 11.976H73.0145C73.0465 11.912 73.0785 11.832 73.1105 11.736H72.9825C72.9932 11.6933 72.9985 11.656 72.9985 11.624C73.0092 11.5813 73.0145 11.5387 73.0145 11.496H73.2065V11.416H73.1905V11.368C73.1905 11.336 73.1905 11.304 73.1905 11.272C73.1905 11.24 73.1958 11.208 73.2065 11.176H72.9825V10.936H73.1425V10.696H73.0145V10.616H72.5185V10.536H72.4225C72.4118 10.4827 72.4065 10.4293 72.4065 10.376C72.4065 10.3227 72.4012 10.2693 72.3905 10.216H73.3665V10.184C73.3558 10.0667 73.3398 9.97067 73.3185 9.896H73.0145C72.9825 9.78933 72.9452 9.70933 72.9025 9.656H73.1905C73.1798 9.63467 73.1585 9.608 73.1265 9.576H73.5745C73.4998 9.50133 73.4038 9.448 73.2865 9.416H72.9025C72.8598 9.40533 72.8118 9.4 72.7585 9.4C72.7158 9.38933 72.6678 9.384 72.6145 9.384C72.5612 9.384 72.5132 9.38933 72.4705 9.4C72.4278 9.4 72.3852 9.40533 72.3425 9.416H72.2945C72.1772 9.448 72.0812 9.50133 72.0065 9.576H71.9745C71.9638 9.59733 71.9425 9.624 71.9105 9.656H71.2545C71.2118 9.70933 71.1745 9.78933 71.1425 9.896H71.9905C71.9798 9.93867 71.9692 9.992 71.9585 10.056C71.9478 10.1093 71.9372 10.1627 71.9265 10.216H71.6065V10.312C71.5958 10.344 71.5905 10.3813 71.5905 10.424C71.5905 10.456 71.5852 10.4933 71.5745 10.536H71.5425V10.616H71.4785V10.696C71.4678 10.7707 71.4678 10.8507 71.4785 10.936H71.1745V11.176H71.4305C71.4305 11.208 71.4305 11.24 71.4305 11.272C71.4305 11.304 71.4358 11.336 71.4465 11.368V11.416C71.4572 11.4373 71.4625 11.464 71.4625 11.496H71.4945L71.5425 11.736H71.8625C71.8838 11.832 71.9158 11.912 71.9585 11.976H72.4385ZM87.3366 12.456H86.6966V12.616H86.7446V12.776H88.7446V13.096H87.9606V13.256H86.8726V13.496H88.5686V13.656H87.6246V13.736H87.4966V14.056H86.9366V14.216H87.4486V14.376H86.9846V14.568C86.9846 14.5893 86.9793 14.6107 86.9686 14.632C86.9686 14.6533 86.9686 14.6747 86.9686 14.696H87.3526C87.3526 14.7067 87.342 14.7333 87.3206 14.776H87.4486C87.374 14.9253 87.2513 15 87.0806 15H84.3606C84.2006 15 84.0726 14.9253 83.9766 14.776H83.8486L83.8006 14.696H83.4166C83.406 14.6747 83.4006 14.648 83.4006 14.616L83.2726 14.696H83.4166L83.2886 14.776H83.7846C83.614 14.872 83.422 14.952 83.2086 15.016H83.1286C83.0753 15.0267 83.0166 15.0373 82.9526 15.048C82.8993 15.0693 82.846 15.0853 82.7926 15.096H82.7126C82.5953 15.1173 82.4726 15.1333 82.3446 15.144C82.2273 15.1547 82.1046 15.16 81.9766 15.16C81.838 15.16 81.7046 15.1547 81.5766 15.144C81.4486 15.1333 81.326 15.1173 81.2086 15.096H81.2886C81.2353 15.0853 81.1766 15.0693 81.1126 15.048C81.0486 15.0373 80.99 15.0267 80.9366 15.016H81.0166C80.7926 14.952 80.59 14.872 80.4086 14.776H79.9126L79.7686 14.696H79.6246C79.55 14.6427 79.4753 14.5947 79.4006 14.552C79.3366 14.4987 79.2726 14.44 79.2086 14.376H79.6886L79.5286 14.216H78.5366L78.3926 14.056H78.9686C78.8833 13.9493 78.8086 13.8427 78.7446 13.736H78.8726L78.8246 13.656H79.7526C79.7313 13.6027 79.7046 13.5493 79.6726 13.496H77.9766L77.8806 13.256H78.9526L78.9046 13.096H79.6886L79.5926 12.776H77.5926L77.5446 12.616H77.5126C77.4913 12.552 77.4806 12.4987 77.4806 12.456H78.1046C78.094 12.4027 78.0833 12.3493 78.0726 12.296C78.062 12.2427 78.0513 12.1893 78.0406 12.136H79.0006C78.99 12.1147 78.9846 12.088 78.9846 12.056C78.9846 12.024 78.9846 11.9973 78.9846 11.976H78.4886C78.4886 11.9333 78.4833 11.896 78.4726 11.864C78.4726 11.8213 78.4726 11.7787 78.4726 11.736H78.1526C78.1526 11.6933 78.1526 11.656 78.1526 11.624C78.1526 11.5813 78.1473 11.5387 78.1366 11.496H78.1046V11.416C78.1046 11.3733 78.0993 11.336 78.0886 11.304C78.0886 11.2613 78.0886 11.2187 78.0886 11.176H77.8486C77.838 11.1333 77.8326 11.096 77.8326 11.064C77.8326 11.0213 77.8326 10.9787 77.8326 10.936H78.1366V10.616H78.2166V10.536H78.2486V10.216H78.5846V10.2C78.5846 10.1467 78.5846 10.0933 78.5846 10.04C78.5846 9.98667 78.59 9.93867 78.6006 9.896H77.7366C77.7473 9.85333 77.7526 9.816 77.7526 9.784C77.7526 9.74133 77.758 9.69867 77.7686 9.656H78.4406V9.576H78.4726C78.4833 9.55467 78.4886 9.528 78.4886 9.496C78.4886 9.464 78.494 9.43733 78.5046 9.416H78.5526L78.6006 9.176H78.2486L78.2806 9.096H78.2326C78.2433 9.05333 78.254 9.016 78.2646 8.984C78.2753 8.94133 78.286 8.89867 78.2966 8.856H78.3926C78.414 8.80267 78.43 8.74933 78.4406 8.696C78.462 8.632 78.4833 8.57867 78.5046 8.536H78.4726L78.5046 8.456C78.526 8.40267 78.5473 8.34933 78.5686 8.296C78.6006 8.232 78.6326 8.17867 78.6646 8.136L78.8086 7.896H78.6486L78.7606 7.736H78.5526C78.5953 7.69333 78.638 7.64 78.6806 7.576H79.2406C79.262 7.55467 79.2833 7.528 79.3046 7.496C79.3366 7.464 79.3686 7.43733 79.4006 7.416H78.8406C78.9153 7.34133 78.974 7.288 79.0166 7.256H79.5126C79.63 7.16 79.742 7.08 79.8486 7.016H79.6726C79.886 6.888 80.1153 6.78133 80.3606 6.696H80.1206C80.5046 6.57867 80.894 6.52 81.2886 6.52C81.694 6.52 82.0726 6.57867 82.4246 6.696H82.6646C82.8993 6.77067 83.118 6.87733 83.3206 7.016H84.1686V6.696H83.8166V6.376H84.2966V6.136H84.2806V5.816H83.5766V5.656H83.7206V5.496H83.8326V5.416H83.7366V5.336H83.6886V5.256H83.6726V5.176H83.6246V5.096H83.5926V4.776H83.2566V4.456H83.6246V4.376H83.6726V4.056C83.6726 4.01333 83.6833 3.96 83.7046 3.896H83.8646C83.9393 3.72533 84.0726 3.64 84.2646 3.64H87.2246C87.4166 3.64 87.55 3.72533 87.6246 3.896H87.4486C87.4806 3.93867 87.4966 3.99733 87.4966 4.072V4.376H87.4486V4.456H87.0806V4.776H87.4166V5.096H87.4486V5.176H87.4966V5.256H87.5126V5.336H87.5606V5.416H87.6566V5.496H87.5446V5.656H87.4006V5.816H88.1046V6.136H88.1206V6.376H87.6406V6.696H87.9926V7.016H87.2246V7.256H87.1446V7.416H87.7046V7.576H87.1446V7.736H87.3366V7.896H87.5126V8.136H87.4966V8.536H87.5286V8.856H87.4326V9.096H87.4646V9.176H87.8166V9.416H88.2006V9.576H87.7526V9.656H87.4646V9.896H87.7686V10.216H86.7926V10.536H86.9046V10.616H87.3846V10.696H87.5286V10.936H87.3686V11.176H87.5926V11.416H87.6086V11.496H87.4326V11.736H87.5606V11.976H88.9206V12.136H87.3366V12.456ZM83.0166 11.976C83.038 12.008 83.0593 12.04 83.0806 12.072C83.102 12.0933 83.1233 12.1147 83.1446 12.136H82.1846C82.3126 12.2427 82.4886 12.296 82.7126 12.296C82.926 12.296 83.102 12.2427 83.2406 12.136H84.8246C84.846 12.1147 84.8673 12.0933 84.8886 12.072C84.9206 12.04 84.942 12.008 84.9526 11.976H83.5926C83.6246 11.912 83.6566 11.832 83.6886 11.736H83.5606C83.5713 11.6933 83.5766 11.656 83.5766 11.624C83.5873 11.5813 83.5926 11.5387 83.5926 11.496H83.7846V11.416H83.7686V11.368C83.7686 11.336 83.7686 11.304 83.7686 11.272C83.7686 11.24 83.774 11.208 83.7846 11.176H83.5606V10.936H83.7206V10.696H83.5926V10.616H83.0966V10.536H83.0006C82.99 10.4827 82.9846 10.4293 82.9846 10.376C82.9846 10.3227 82.9793 10.2693 82.9686 10.216H83.9446V10.184C83.934 10.0667 83.918 9.97067 83.8966 9.896H83.5926C83.5606 9.78933 83.5233 9.70933 83.4806 9.656H83.7686C83.758 9.63467 83.7366 9.608 83.7046 9.576H84.1526C84.078 9.50133 83.982 9.448 83.8646 9.416H83.4806C83.438 9.40533 83.39 9.4 83.3366 9.4C83.294 9.38933 83.246 9.384 83.1926 9.384C83.1393 9.384 83.0913 9.38933 83.0486 9.4C83.006 9.4 82.9633 9.40533 82.9206 9.416H82.8726C82.7553 9.448 82.6593 9.50133 82.5846 9.576H82.5526C82.542 9.59733 82.5206 9.624 82.4886 9.656H81.8326C81.79 9.70933 81.7526 9.78933 81.7206 9.896H82.5686C82.558 9.93867 82.5473 9.992 82.5366 10.056C82.526 10.1093 82.5153 10.1627 82.5046 10.216H82.1846V10.312C82.174 10.344 82.1686 10.3813 82.1686 10.424C82.1686 10.456 82.1633 10.4933 82.1526 10.536H82.1206V10.616H82.0566V10.696C82.046 10.7707 82.046 10.8507 82.0566 10.936H81.7526V11.176H82.0086C82.0086 11.208 82.0086 11.24 82.0086 11.272C82.0086 11.304 82.014 11.336 82.0246 11.368V11.416C82.0353 11.4373 82.0406 11.464 82.0406 11.496H82.0726L82.1206 11.736H82.4406C82.462 11.832 82.494 11.912 82.5366 11.976H83.0166ZM88.8588 5.336V5.016H88.8428V4.776H88.9868V4.696H89.0828V4.376H89.0028V4.136H89.0188V3.816H89.0828V3.576H89.0508V3.432C89.0508 3.34667 89.0614 3.288 89.0828 3.256H89.2428L89.2908 3.176H89.1628C89.2481 3.05867 89.3654 3 89.5148 3H92.2188C92.3681 3 92.4854 3.05867 92.5708 3.176H92.6988L92.7468 3.256H92.5708C92.6028 3.29867 92.6188 3.35733 92.6188 3.432V3.576H92.6508V3.816H92.5868V4.136H92.5708V4.376H92.6508V4.696H92.5548V4.776H92.4108V5.016H92.4268V5.336H92.5388V5.368C92.5388 5.464 92.5014 5.56 92.4268 5.656H92.2348C92.1601 5.752 92.0534 5.8 91.9148 5.8H89.2108C89.0721 5.8 88.9601 5.752 88.8748 5.656H89.0668C89.0028 5.57067 88.9708 5.47467 88.9708 5.368V5.336H88.8588ZM92.1548 8.696H93.6588V9.016H93.1148V9.176H92.5068V9.496H92.9708V9.576H92.6668V9.736H92.7148V9.896H92.7948V10.136H91.9948V10.376H92.5228V10.616H92.4268V10.776H92.6988V11.016H92.7628V11.256H92.6668V11.496H92.7468V11.656H92.6668V11.976H92.6348V12.216H92.5708V12.456H92.6348V12.616H92.6668V12.936H92.6028V13.096H92.6828V13.256H92.6668V13.496H92.7308V13.736H92.7788V13.816H92.6668V14.136H92.4427V14.456H92.6028V14.568C92.6028 14.6213 92.5974 14.664 92.5868 14.696H92.4748C92.4428 14.8027 92.3841 14.8827 92.2988 14.936H92.6188C92.5654 14.9787 92.4854 15 92.3788 15H89.5148C89.4188 15 89.3441 14.9787 89.2908 14.936H88.9708C88.8748 14.8827 88.8108 14.8027 88.7788 14.696H88.8908C88.8801 14.664 88.8748 14.6213 88.8748 14.568V14.456H88.7148V14.136H88.9388V13.816H89.0508V13.736H89.0028V13.496H88.9388V13.256H88.9548V13.096H88.8748V12.936H88.9388V12.616H88.9068V12.456H88.8428V12.216H88.9068V11.976H88.9388V11.656H89.0188V11.496H88.9388V11.256H89.0348V11.016H88.9708V10.776H88.6988V10.616H88.7948V10.376H88.2668V10.136H89.0668V9.896H88.9868V9.736H88.9388V9.576H89.2428V9.496H88.7788V9.176H89.3868V9.016H89.9308V8.696H88.4268V8.536H89.7548V8.216H89.2747V7.976H89.5628V7.656H89.0508V7.576H88.9388V7.416H88.8428V7.176H88.9548V7.112C88.9548 6.99467 88.9814 6.90933 89.0348 6.856H89.0508C89.1361 6.73867 89.2534 6.68 89.4028 6.68H92.2668C92.4161 6.68 92.5334 6.73867 92.6188 6.856H92.5868C92.6508 6.92 92.6828 7.00533 92.6828 7.112V7.176H92.5708V7.416H92.6668V7.576H92.7788V7.656H93.2908V7.976H93.0028V8.216H93.4828V8.536H92.1548V8.696ZM104.268 13.816H106.652V14.136H105.292V14.376H105.068V14.536H104.076V14.616H104.572C104.55 14.7653 104.486 14.872 104.38 14.936H104.028C103.974 14.9787 103.894 15 103.788 15H100.732C100.636 15 100.561 14.9787 100.508 14.936H100.86C100.753 14.872 100.689 14.7653 100.668 14.616H100.156V14.536H101.148V14.376H101.372V14.136H102.732V13.816H100.348V13.496H100.94V13.416H100.412V13.256H100.428V13.096H100.172V12.776H100.38V12.456H99.7235V12.136H99.8835V11.816H100.62V11.496H100.444V11.336H100.38V11.256H100.316V11.016H100.412V10.936H100.492V10.776H100.476V10.616H100.428V10.456H99.7555V10.296H99.9315V10.264C99.9315 10.2213 99.9262 10.184 99.9155 10.152C99.9155 10.12 99.9155 10.088 99.9155 10.056H100.236C100.225 10.0027 100.214 9.96 100.204 9.928C100.193 9.88533 100.182 9.848 100.172 9.816H100.46C100.396 9.67733 100.305 9.57067 100.188 9.496H99.6755C99.5582 9.42133 99.4035 9.384 99.2115 9.384C99.0195 9.384 98.8702 9.42133 98.7635 9.496H99.1475C99.0942 9.53867 99.0408 9.58667 98.9875 9.64C98.9448 9.68267 98.9128 9.74133 98.8915 9.816H98.4115C98.3902 9.85867 98.3688 9.93867 98.3475 10.056H98.4275C98.4168 10.0987 98.4115 10.168 98.4115 10.264V10.296H98.2995V10.456H98.8275V10.616H98.8595V10.776H98.8115V10.936H98.6995V11.016H98.5875V11.256H98.7635V11.336H98.8755V11.496H98.8115V11.816H99.2275V12.136H98.7795V12.456H98.8595V12.776H98.6835V13.096H98.8755V13.256H98.8595V13.336H98.9075V13.416H99.7875V13.496H100.156V13.816H99.1635V14.136H99.1955V14.376H98.5875V14.536H99.2755V14.616H99.4515C99.4302 14.7653 99.3608 14.872 99.2435 14.936H98.5075C98.4542 14.9787 98.3795 15 98.2835 15H95.2435C95.1475 15 95.0728 14.9787 95.0195 14.936H95.7555C95.6382 14.872 95.5688 14.7653 95.5475 14.616H95.3715V14.536H94.6835V14.376H95.2915V14.136H95.2595V13.816H96.2515V13.496H95.8835V13.416H95.0035V13.336H94.9555V13.256H94.9715V13.096H94.7795V12.776H94.9555V12.456H94.8755V12.136H95.3235V11.816H94.9075V11.496H94.9715V11.336H94.8595V11.256H94.6835V11.016H94.7955V10.936H94.9075V10.776H94.9555V10.616H94.9235V10.456H94.3955V10.296H94.5075V10.056H94.4275V9.816H94.9075V9.496H94.5075V9.256H94.8595V9.096H94.9555V8.856H94.8915V8.616H94.9075V8.216H94.9875V8.056H94.9715V7.816H95.1795V7.736H95.0515V7.496H95.2435V7.416H94.6035V7.256H95.0675V7.016H95.9315C95.9528 6.952 95.9742 6.89867 95.9955 6.856H95.4835C95.5688 6.73867 95.6862 6.68 95.8355 6.68H98.6355C98.7848 6.68 98.9022 6.73867 98.9875 6.856H99.2595C99.4942 6.74933 99.7448 6.66933 100.012 6.616C100.278 6.552 100.556 6.52 100.844 6.52C101.377 6.52 101.857 6.632 102.284 6.856H102.46C102.513 6.87733 102.561 6.904 102.604 6.936C102.646 6.95733 102.689 6.984 102.732 7.016H102.508C102.561 7.048 102.614 7.08533 102.668 7.128C102.721 7.16 102.769 7.20267 102.812 7.256H104.06C104.124 7.29867 104.177 7.352 104.22 7.416H103.34C103.35 7.42667 103.361 7.43733 103.372 7.448C103.382 7.45867 103.393 7.47467 103.404 7.496H103.628C103.66 7.53867 103.692 7.58133 103.724 7.624C103.756 7.656 103.782 7.69333 103.804 7.736H103.948L103.996 7.816H103.788L103.932 8.056H103.948C103.969 8.10933 103.996 8.16267 104.028 8.216H103.948C104.001 8.33333 104.044 8.44 104.076 8.536C104.076 8.54667 104.086 8.57333 104.108 8.616H104.092C104.113 8.65867 104.124 8.70133 104.124 8.744C104.134 8.776 104.145 8.81333 104.156 8.856H104.22C104.241 8.89867 104.252 8.94133 104.252 8.984C104.262 9.016 104.273 9.05333 104.284 9.096H104.172C104.193 9.16 104.204 9.21333 104.204 9.256H103.868C103.878 9.29867 103.884 9.34133 103.884 9.384C103.884 9.416 103.889 9.45333 103.9 9.496H104.412C104.422 9.53867 104.428 9.592 104.428 9.656C104.438 9.70933 104.444 9.76267 104.444 9.816H104.156V10.056H103.852V10.296H103.676V10.456H104.348V10.616H104.396V10.776H104.412V10.936H104.332V11.016H104.236V11.256H104.3V11.336H104.364V11.496H104.54V11.816H103.804V12.136H103.644V12.456H104.3V12.776H104.092V13.096H104.348V13.256H104.332V13.416H104.86V13.496H104.268V13.816ZM98.8915 7.016H98.7155C98.7155 7.02667 98.7155 7.04267 98.7155 7.064C98.7262 7.07467 98.7315 7.09067 98.7315 7.112V7.128C98.7528 7.10667 98.7795 7.08533 98.8115 7.064C98.8435 7.04267 98.8702 7.02667 98.8915 7.016ZM98.2675 7.256V7.416H99.5955L99.7875 7.256H98.2675ZM98.7155 7.496V7.64C98.7368 7.608 98.7795 7.56 98.8435 7.496H98.7155ZM115.017 14.696H115.529V14.936H115.129V15.016H115.241C115.23 15.0587 115.225 15.096 115.225 15.128C115.225 15.1707 115.219 15.2133 115.209 15.256H115.193V15.336H114.441C114.43 15.3573 114.425 15.384 114.425 15.416C114.425 15.448 114.419 15.4747 114.409 15.496H115.337C115.326 15.5493 115.315 15.6027 115.305 15.656C115.294 15.7093 115.283 15.7627 115.273 15.816H115.017C115.006 15.8587 114.995 15.896 114.985 15.928C114.974 15.9707 114.958 16.0133 114.937 16.056H114.409L114.345 16.216H114.617L114.553 16.376H114.585C114.563 16.4293 114.537 16.4827 114.505 16.536H114.521L114.377 16.776C114.366 16.7867 114.355 16.7973 114.345 16.808C114.345 16.8187 114.339 16.8347 114.329 16.856C114.307 16.8987 114.281 16.936 114.249 16.968C114.217 17.0107 114.185 17.0533 114.153 17.096H114.121L114.041 17.176H114.345L114.201 17.336H113.833C113.801 17.3573 113.769 17.384 113.737 17.416C113.705 17.448 113.678 17.4747 113.657 17.496H114.089C114.046 17.5387 113.993 17.576 113.929 17.608C113.875 17.6507 113.822 17.6933 113.769 17.736H114.345C114.281 17.7787 114.211 17.816 114.137 17.848C114.073 17.8907 114.003 17.9333 113.929 17.976H113.769C113.715 18.008 113.657 18.0347 113.593 18.056C113.529 18.088 113.47 18.1147 113.417 18.136H112.505C112.302 18.2107 112.094 18.2747 111.881 18.328C111.667 18.3813 111.449 18.424 111.225 18.456H112.169C112.009 18.4773 111.843 18.4933 111.673 18.504C111.502 18.5147 111.331 18.52 111.161 18.52C110.979 18.52 110.798 18.5147 110.617 18.504C110.446 18.4933 110.281 18.4773 110.121 18.456H109.177C108.697 18.392 108.254 18.2853 107.849 18.136H108.761C108.697 18.1147 108.633 18.088 108.569 18.056C108.505 18.0347 108.441 18.008 108.377 17.976H108.537C108.462 17.9333 108.387 17.8907 108.313 17.848C108.238 17.816 108.163 17.7787 108.089 17.736H107.529C107.465 17.6933 107.401 17.6507 107.337 17.608C107.283 17.576 107.23 17.5387 107.177 17.496H106.745C106.659 17.432 106.595 17.3787 106.553 17.336H106.921C106.889 17.3147 106.857 17.288 106.825 17.256C106.793 17.224 106.766 17.1973 106.745 17.176H106.441C106.43 17.1547 106.419 17.1387 106.409 17.128C106.398 17.1173 106.382 17.1067 106.361 17.096H106.409C106.366 17.0533 106.329 17.0107 106.297 16.968C106.265 16.936 106.233 16.8987 106.201 16.856H106.185C106.174 16.8347 106.153 16.808 106.121 16.776H106.137C106.105 16.7333 106.073 16.6907 106.041 16.648C106.009 16.616 105.982 16.5787 105.961 16.536L105.865 16.376H105.833C105.822 16.3547 105.811 16.328 105.801 16.296C105.79 16.264 105.774 16.2373 105.753 16.216H105.481L105.417 16.056H105.961C105.95 16.0133 105.934 15.9707 105.913 15.928C105.902 15.896 105.891 15.8587 105.881 15.816H105.785C105.785 15.784 105.779 15.752 105.769 15.72C105.769 15.6987 105.769 15.6773 105.769 15.656C105.769 15.5813 105.774 15.528 105.785 15.496H105.737C105.769 15.432 105.806 15.3787 105.849 15.336H105.753C105.817 15.2933 105.865 15.2667 105.897 15.256H106.105C106.169 15.2347 106.227 15.224 106.281 15.224H109.401C109.454 15.224 109.513 15.2347 109.577 15.256H109.353C109.406 15.2667 109.449 15.2933 109.481 15.336H109.577C109.619 15.3787 109.657 15.432 109.689 15.496H109.737L109.769 15.544C109.843 15.672 109.913 15.7627 109.977 15.816H110.057C110.174 15.9013 110.334 15.944 110.537 15.944C110.697 15.944 110.835 15.9013 110.953 15.816H111.209C111.305 15.7413 111.374 15.6347 111.417 15.496H110.489C110.51 15.432 110.521 15.3787 110.521 15.336H111.273C111.283 15.3147 111.289 15.288 111.289 15.256H111.305C111.315 15.2133 111.321 15.1707 111.321 15.128C111.321 15.096 111.321 15.0587 111.321 15.016H111.225V14.936H111.609V14.696H111.097V14.616H110.793V14.536H111.081V14.216H110.777V14.12L110.617 14.216H110.601C110.345 14.3653 110.067 14.472 109.769 14.536H109.833C109.747 14.5467 109.662 14.5627 109.577 14.584C109.491 14.5947 109.401 14.6053 109.305 14.616H108.905C108.841 14.6267 108.777 14.632 108.713 14.632C108.649 14.632 108.585 14.632 108.521 14.632C108.446 14.632 108.371 14.632 108.297 14.632C108.222 14.632 108.153 14.6267 108.089 14.616H108.473C108.377 14.6053 108.281 14.5947 108.185 14.584C108.089 14.5627 107.993 14.5467 107.897 14.536H107.849C107.689 14.504 107.534 14.4613 107.385 14.408C107.246 14.3547 107.107 14.2907 106.969 14.216H106.985C106.942 14.1947 106.899 14.1733 106.857 14.152C106.814 14.12 106.771 14.088 106.729 14.056H107.097C107.033 14.0027 106.969 13.9493 106.905 13.896C106.851 13.8427 106.798 13.7893 106.745 13.736H105.449L105.369 13.656H106.105C106.019 13.5493 105.945 13.4427 105.881 13.336H106.089C106.014 13.2293 105.955 13.1227 105.913 13.016H105.881C105.827 12.8987 105.785 12.792 105.753 12.696H104.585C104.585 12.6747 104.585 12.6587 104.585 12.648C104.574 12.6373 104.569 12.6267 104.569 12.616H105.657L105.609 12.456H105.689C105.678 12.4027 105.662 12.3493 105.641 12.296C105.63 12.2427 105.619 12.1893 105.609 12.136H105.801L105.753 11.816H105.545L105.529 11.656H105.145C105.134 11.6027 105.129 11.5493 105.129 11.496C105.129 11.4427 105.123 11.3893 105.113 11.336H104.969C104.969 11.2933 104.969 11.256 104.969 11.224C104.958 11.1813 104.953 11.1387 104.953 11.096H105.177V10.936H105.465C105.465 10.8933 105.459 10.856 105.449 10.824C105.449 10.7813 105.449 10.7387 105.449 10.696H105.593V10.456H105.337C105.337 10.4133 105.337 10.376 105.337 10.344C105.337 10.3013 105.342 10.2587 105.353 10.216H105.385V10.2C105.385 10.1573 105.385 10.12 105.385 10.088C105.395 10.056 105.401 10.0187 105.401 9.976H105.465C105.475 9.93333 105.481 9.896 105.481 9.864C105.481 9.82133 105.486 9.77867 105.497 9.736C105.507 9.71467 105.513 9.688 105.513 9.656C105.513 9.624 105.518 9.59733 105.529 9.576H105.449V9.496H105.545C105.555 9.44267 105.566 9.38933 105.577 9.336C105.587 9.272 105.598 9.21867 105.609 9.176H105.593C105.603 9.13333 105.614 9.096 105.625 9.064C105.635 9.02133 105.646 8.97867 105.657 8.936H105.785C105.806 8.88267 105.822 8.82933 105.833 8.776C105.854 8.712 105.875 8.65867 105.897 8.616H105.977L106.009 8.536H105.785C105.795 8.51467 105.806 8.488 105.817 8.456C105.827 8.424 105.838 8.39733 105.849 8.376L105.945 8.136C105.955 8.11467 105.961 8.09867 105.961 8.088C105.971 8.07733 105.982 8.06667 105.993 8.056L106.041 7.976C106.062 7.95467 106.078 7.928 106.089 7.896C106.11 7.864 106.131 7.83733 106.153 7.816C106.163 7.79467 106.174 7.77867 106.185 7.768C106.195 7.75733 106.206 7.74667 106.217 7.736H106.185L106.377 7.496C106.409 7.47467 106.435 7.448 106.457 7.416C106.489 7.384 106.515 7.35733 106.537 7.336H106.569C106.579 7.31467 106.59 7.29867 106.601 7.288C106.622 7.27733 106.638 7.26667 106.649 7.256H106.825C106.889 7.192 106.958 7.13867 107.033 7.096H106.633C106.675 7.064 106.718 7.03733 106.761 7.016C106.803 6.984 106.846 6.95733 106.889 6.936H107.001C107.15 6.85067 107.331 6.77067 107.545 6.696H108.073C108.457 6.57867 108.867 6.52 109.305 6.52C109.689 6.52 110.046 6.57867 110.377 6.696H109.849C110.019 6.74933 110.19 6.82933 110.361 6.936H110.265C110.307 6.95733 110.345 6.984 110.377 7.016C110.419 7.03733 110.462 7.064 110.505 7.096H110.889C110.931 7.11733 110.969 7.144 111.001 7.176C111.033 7.208 111.065 7.23467 111.097 7.256H110.921L111.001 7.336H110.985L111.129 7.496C111.15 7.50667 111.166 7.52267 111.177 7.544C111.198 7.56533 111.214 7.58667 111.225 7.608V7.496H111.289V7.336H111.561V7.256H111.737V7.096H110.953C110.953 7.032 110.969 6.97867 111.001 6.936H111.273C111.326 6.808 111.417 6.728 111.545 6.696H111.225C111.257 6.68533 111.299 6.68 111.353 6.68H114.153C114.206 6.68 114.243 6.68533 114.265 6.696H114.585C114.713 6.728 114.803 6.808 114.857 6.936H114.585C114.606 7 114.617 7.05333 114.617 7.096H115.401V7.256H115.225V7.336H114.953V7.496H114.889V7.736H114.905V7.976H114.889V8.376H114.905V8.536H115.129V8.616H115.033V8.936H114.889L114.905 9.176V9.576H114.857V9.736H114.809V9.976H114.905V10.216H115.097V10.456H114.761V10.696H114.873V10.936H114.905V11.096H114.377L114.393 11.336H114.457V11.656H114.809V11.816H115.097V12.136H114.889V12.456H114.825V12.616H113.721V12.696H114.889V13.016H114.921V13.336H114.697L114.713 13.656H113.977V13.736H115.273V14.056H114.697V14.216H115.001V14.536H114.713V14.616H115.017V14.696ZM109.625 11.656C109.699 11.7307 109.795 11.784 109.913 11.816H110.105C110.147 11.8267 110.19 11.8373 110.233 11.848C110.286 11.848 110.334 11.848 110.377 11.848C110.43 11.848 110.478 11.848 110.521 11.848C110.574 11.8373 110.622 11.8267 110.665 11.816H110.377C110.494 11.784 110.59 11.7307 110.665 11.656H110.313C110.398 11.5707 110.457 11.464 110.489 11.336H110.425L110.473 11.096H110.985C110.985 11.0747 110.99 11.0587 111.001 11.048V10.936H110.969V10.696H110.873V10.456H111.193V10.216H110.985V10.184C110.985 10.1413 110.979 10.104 110.969 10.072C110.969 10.04 110.963 10.008 110.953 9.976H110.873C110.862 9.89067 110.835 9.81067 110.793 9.736H110.825C110.793 9.672 110.755 9.61867 110.713 9.576H110.761C110.718 9.53333 110.686 9.50667 110.665 9.496C110.558 9.42133 110.403 9.384 110.201 9.384C109.998 9.384 109.843 9.42133 109.737 9.496H109.641C109.619 9.50667 109.587 9.53333 109.545 9.576H109.625C109.582 9.61867 109.545 9.672 109.513 9.736H109.497C109.486 9.768 109.475 9.80533 109.465 9.848C109.454 9.88 109.438 9.92267 109.417 9.976H109.353C109.342 10.0187 109.331 10.0613 109.321 10.104C109.321 10.136 109.321 10.1733 109.321 10.216H109.273V10.312C109.262 10.344 109.257 10.392 109.257 10.456H109.513V10.696H109.369C109.369 10.7387 109.369 10.7813 109.369 10.824C109.379 10.856 109.385 10.888 109.385 10.92V10.936H109.097L109.113 11.096H108.889L108.937 11.336H109.081C109.113 11.464 109.171 11.5707 109.257 11.656H109.625ZM111.209 14.056H111.353V13.944L111.209 14.056Z" fill="#D7D5D5"/>
<path d="M55.3123 27.212V27.646C55.3123 27.7953 55.3076 27.9633 55.2983 28.15C55.2983 28.3367 55.2843 28.5093 55.2563 28.668C55.2283 28.836 55.1956 28.9993 55.1583 29.158C55.121 29.3073 55.0743 29.4567 55.0183 29.606C54.981 29.7087 54.9483 29.802 54.9203 29.886C54.8923 29.9607 54.855 30.0213 54.8083 30.068C54.8083 30.0773 54.8036 30.082 54.7943 30.082C54.7943 30.082 54.7943 30.0867 54.7943 30.096C54.729 30.2173 54.6683 30.3153 54.6123 30.39C54.575 30.4553 54.5283 30.5207 54.4723 30.586C54.4163 30.642 54.3603 30.698 54.3043 30.754C54.2576 30.8007 54.2063 30.8473 54.1503 30.894C54.1036 30.9407 54.057 30.9873 54.0103 31.034C54.0103 31.034 54.0056 31.034 53.9963 31.034C53.9963 31.034 53.9963 31.0387 53.9963 31.048C53.9496 31.0947 53.903 31.1647 53.8563 31.258C53.847 31.2673 53.8423 31.2767 53.8423 31.286C53.8423 31.2953 53.8376 31.3047 53.8283 31.314L53.7863 31.384C53.777 31.3933 53.7676 31.4073 53.7583 31.426C53.7583 31.4353 53.7536 31.44 53.7443 31.44C53.707 31.5053 53.6603 31.566 53.6043 31.622C53.5576 31.6593 53.5016 31.706 53.4363 31.762C53.3803 31.8087 53.3196 31.8413 53.2543 31.86H53.1843C53.175 31.8973 53.161 31.9393 53.1423 31.986C53.133 32.0233 53.119 32.0607 53.1003 32.098C53.091 32.1073 53.0816 32.1213 53.0723 32.14C53.0723 32.1587 53.063 32.1773 53.0443 32.196C53.035 32.2053 53.0256 32.2147 53.0163 32.224C53.007 32.2333 53.0023 32.2473 53.0023 32.266C52.993 32.3687 52.9836 32.5227 52.9743 32.728C52.9743 32.9333 52.9696 33.148 52.9603 33.372C52.9603 33.6053 52.9603 33.8247 52.9603 34.03C52.9603 34.2353 52.9556 34.3893 52.9463 34.492C52.9463 34.5013 52.9276 34.4873 52.8903 34.45C52.881 34.422 52.8716 34.394 52.8623 34.366C52.8623 34.338 52.853 34.31 52.8343 34.282L52.6943 33.652C52.6476 33.512 52.6243 33.3393 52.6243 33.134C52.6243 32.9287 52.6243 32.7233 52.6243 32.518C52.6336 32.322 52.6196 32.154 52.5823 32.014C52.5823 32.014 52.5776 32.014 52.5683 32.014C52.5683 32.0233 52.5683 32.0327 52.5683 32.042C52.5683 32.0513 52.5636 32.0513 52.5543 32.042C52.545 32.0327 52.5356 32.028 52.5263 32.028C52.5076 32.0187 52.489 32.0047 52.4703 31.986C52.461 31.9767 52.447 31.9673 52.4283 31.958C52.419 31.9487 52.405 31.9393 52.3863 31.93C52.349 31.9673 52.321 32.0047 52.3023 32.042C52.2836 32.0607 52.2743 32.0747 52.2743 32.084L52.1903 32.182C52.0876 32.3127 52.0083 32.4573 51.9523 32.616L51.8683 32.868C51.831 32.98 51.789 33.0967 51.7423 33.218C51.6956 33.3487 51.6256 33.4653 51.5323 33.568C51.4763 33.624 51.453 33.6427 51.4623 33.624C51.481 33.6147 51.4903 33.6053 51.4903 33.596L51.4343 33.652C51.397 33.6707 51.3783 33.6847 51.3783 33.694C51.3783 33.7127 51.355 33.7267 51.3083 33.736C51.299 33.736 51.2803 33.7313 51.2523 33.722C51.2336 33.7127 51.215 33.7127 51.1963 33.722C51.187 33.722 51.1776 33.722 51.1683 33.722C51.159 33.7313 51.145 33.736 51.1263 33.736L51.0283 33.806C51.0096 33.8153 50.9816 33.834 50.9443 33.862C50.9163 33.89 50.8883 33.89 50.8603 33.862C50.851 33.8527 50.8416 33.8387 50.8323 33.82C50.8323 33.8013 50.823 33.7873 50.8043 33.778C50.795 33.7687 50.7856 33.7687 50.7763 33.778C50.767 33.7967 50.7576 33.8013 50.7483 33.792C50.739 33.7827 50.7296 33.7733 50.7203 33.764C50.711 33.7547 50.7016 33.7453 50.6923 33.736C50.655 33.7173 50.6176 33.6893 50.5803 33.652C50.543 33.6147 50.5056 33.582 50.4683 33.554C50.431 33.5167 50.3983 33.4887 50.3703 33.47C50.3516 33.5167 50.3423 33.5633 50.3423 33.61C50.3423 33.666 50.333 33.7173 50.3143 33.764C50.305 33.8013 50.291 33.834 50.2723 33.862C50.263 33.89 50.2583 33.918 50.2583 33.946C50.249 34.0487 50.2443 34.198 50.2443 34.394C50.2443 34.5993 50.2443 34.814 50.2443 35.038C50.2443 35.262 50.2396 35.472 50.2303 35.668C50.221 35.8733 50.207 36.0273 50.1883 36.13C50.179 36.214 50.1696 36.228 50.1603 36.172C50.1603 36.116 50.1556 36.0227 50.1463 35.892C50.1463 35.7613 50.1416 35.626 50.1323 35.486C50.1323 35.3553 50.1323 35.248 50.1323 35.164C50.123 35.024 50.1136 34.8467 50.1043 34.632C50.1043 34.4173 50.0996 34.2027 50.0903 33.988C50.0903 33.7827 50.0856 33.61 50.0763 33.47C50.039 33.498 50.0063 33.5307 49.9783 33.568C49.9223 33.6333 49.871 33.6987 49.8243 33.764C49.7776 33.8293 49.717 33.8853 49.6423 33.932C49.633 34.0067 49.6236 34.0813 49.6143 34.156C49.605 34.2307 49.5956 34.3053 49.5863 34.38C49.577 34.52 49.5583 34.6553 49.5303 34.786C49.5116 34.9167 49.493 35.0473 49.4743 35.178C49.465 35.234 49.4556 35.2853 49.4463 35.332C49.4463 35.388 49.437 35.4393 49.4183 35.486C49.409 35.5233 49.3996 35.5793 49.3903 35.654C49.381 35.738 49.3716 35.7613 49.3623 35.724C49.3436 35.5093 49.3343 35.276 49.3343 35.024C49.3343 34.7813 49.325 34.5573 49.3063 34.352C49.3063 34.3427 49.297 34.338 49.2783 34.338C49.2596 34.338 49.2503 34.3427 49.2503 34.352C49.2316 34.5573 49.2223 34.7907 49.2223 35.052C49.2223 35.3133 49.213 35.5513 49.1943 35.766C49.1943 35.8033 49.185 35.7893 49.1663 35.724C49.157 35.6587 49.1476 35.612 49.1383 35.584C49.1103 35.4813 49.087 35.3647 49.0683 35.234C49.0496 35.1033 49.031 34.996 49.0123 34.912C48.9936 34.744 48.975 34.576 48.9563 34.408C48.947 34.2493 48.9283 34.0907 48.9003 33.932L48.8163 33.848C48.7883 33.8013 48.7603 33.7547 48.7323 33.708C48.7136 33.6707 48.695 33.6333 48.6763 33.596C48.6016 33.428 48.5316 33.26 48.4663 33.092C48.4103 32.924 48.345 32.7607 48.2703 32.602L48.0603 32.168C48.051 32.1493 48.0463 32.1353 48.0463 32.126C48.0463 32.1167 48.0416 32.1073 48.0323 32.098C48.0136 32.1353 48.0043 32.1773 48.0043 32.224C48.0136 32.28 48.0043 32.3313 47.9763 32.378C47.967 32.3873 47.9576 32.3733 47.9483 32.336C47.939 32.308 47.9296 32.2893 47.9203 32.28C47.911 32.224 47.897 32.182 47.8783 32.154C47.8783 32.1727 47.869 32.1913 47.8503 32.21C47.841 32.2287 47.8223 32.252 47.7943 32.28C47.7663 32.308 47.7383 32.336 47.7103 32.364C47.6916 32.392 47.6683 32.4153 47.6403 32.434C47.5936 32.4993 47.5563 32.574 47.5283 32.658C47.5096 32.7513 47.491 32.8353 47.4723 32.91C47.463 32.9473 47.4536 32.9847 47.4443 33.022C47.4443 33.0593 47.435 33.0967 47.4163 33.134C47.407 33.1713 47.3976 33.2273 47.3883 33.302C47.379 33.3767 47.3696 33.3953 47.3603 33.358C47.2576 33.2553 47.211 33.2133 47.2203 33.232C47.2296 33.26 47.2576 33.3067 47.3043 33.372C47.351 33.4467 47.379 33.5073 47.3883 33.554C47.3976 33.61 47.351 33.6147 47.2483 33.568C47.155 33.54 47.1083 33.4747 47.1083 33.372C47.1176 33.2693 47.1363 33.1527 47.1643 33.022C47.2016 32.8913 47.211 32.7793 47.1923 32.686C47.1923 32.6673 47.183 32.6487 47.1643 32.63C47.155 32.6113 47.1503 32.6113 47.1503 32.63C47.141 32.6767 47.1363 32.7467 47.1363 32.84C47.1363 32.9333 47.1363 33.008 47.1363 33.064C47.1363 33.1293 47.1223 33.1387 47.0943 33.092C47.0476 32.9893 47.0336 32.882 47.0523 32.77C47.071 32.658 47.071 32.5507 47.0523 32.448C47.043 32.392 47.0196 32.3453 46.9823 32.308C46.9636 32.2987 46.945 32.2847 46.9263 32.266C46.9076 32.2473 46.889 32.2333 46.8703 32.224C46.861 32.224 46.8516 32.2287 46.8423 32.238C46.8423 32.2567 46.8376 32.2707 46.8283 32.28C46.8003 32.28 46.7863 32.2847 46.7863 32.294C46.777 32.3687 46.777 32.4667 46.7863 32.588C46.805 32.7187 46.8143 32.826 46.8143 32.91C46.8236 32.994 46.7956 33.0173 46.7303 32.98C46.637 32.9053 46.609 32.7933 46.6463 32.644C46.693 32.4947 46.707 32.3593 46.6883 32.238C46.6883 32.2193 46.6836 32.196 46.6743 32.168C46.665 32.14 46.651 32.1353 46.6323 32.154C46.6136 32.182 46.609 32.224 46.6183 32.28C46.6276 32.336 46.6183 32.3593 46.5903 32.35C46.553 32.3313 46.539 32.2987 46.5483 32.252C46.567 32.2053 46.5716 32.1633 46.5623 32.126L46.4643 31.986C46.427 31.9673 46.3943 31.9487 46.3663 31.93C46.2636 31.8553 46.2123 31.7527 46.2123 31.622V28.99C46.035 28.7007 45.9043 28.43 45.8203 28.178C45.7456 27.9167 45.7316 27.7067 45.7783 27.548C45.8343 27.3893 45.979 27.31 46.2123 27.31V22.97C46.2123 22.914 46.2076 22.8533 46.1983 22.788C46.1983 22.7133 46.203 22.6433 46.2123 22.578C46.2123 22.4847 46.2356 22.41 46.2823 22.354C46.3196 22.298 46.371 22.256 46.4363 22.228C46.4923 22.2093 46.539 22.2 46.5763 22.2C46.623 22.1907 46.6696 22.1907 46.7163 22.2C46.7723 22.2 46.8236 22.2 46.8703 22.2H50.3703C50.5196 22.2 50.669 22.2 50.8183 22.2C50.9676 22.2 51.117 22.2093 51.2663 22.228C52.293 22.312 53.1563 22.62 53.8563 23.152C53.9123 23.1893 53.9543 23.222 53.9823 23.25C54.0103 23.2687 54.0336 23.2873 54.0523 23.306C54.2203 23.446 54.3836 23.6187 54.5423 23.824C54.6543 23.9453 54.7476 24.0853 54.8223 24.244C54.9996 24.5707 55.1303 24.9393 55.2143 25.35C55.2143 25.3593 55.2143 25.364 55.2143 25.364C55.2236 25.364 55.2283 25.3687 55.2283 25.378C55.2376 25.4153 55.247 25.4573 55.2563 25.504C55.2656 25.5413 55.2703 25.5833 55.2703 25.63C55.2983 25.7513 55.3123 25.882 55.3123 26.022C55.331 26.4607 55.331 26.8573 55.3123 27.212ZM49.7683 24.972L49.6843 24.888C49.5816 24.7853 49.5396 24.7387 49.5583 24.748C49.577 24.7573 49.6096 24.79 49.6563 24.846C49.7123 24.902 49.731 24.9487 49.7123 24.986V29.102C49.7123 29.7833 49.633 30.2827 49.4743 30.6C49.325 30.9173 49.1196 31.09 48.8583 31.118C48.6063 31.146 48.331 31.076 48.0323 30.908C47.7336 30.7307 47.4396 30.4927 47.1503 30.194C46.861 29.8953 46.5996 29.578 46.3663 29.242C46.1423 28.906 45.9743 28.5887 45.8623 28.29C45.7503 27.982 45.7223 27.7393 45.7783 27.562C45.8436 27.3753 46.0163 27.2913 46.2963 27.31C46.5763 27.3193 46.9916 27.4733 47.5423 27.772C48.1023 28.0613 48.8256 28.5327 49.7123 29.186L49.8243 29.27H50.4123C50.5336 29.27 50.6503 29.2653 50.7623 29.256C50.8836 29.2373 51.005 29.2093 51.1263 29.172C51.201 29.144 51.271 29.102 51.3363 29.046C51.3456 29.046 51.3503 29.046 51.3503 29.046C51.3503 29.0367 51.355 29.032 51.3643 29.032C51.383 29.0133 51.4016 28.99 51.4203 28.962C51.439 28.934 51.4576 28.906 51.4763 28.878C51.5323 28.7847 51.5743 28.6867 51.6023 28.584C51.6396 28.472 51.6676 28.3693 51.6863 28.276C51.6863 28.2667 51.6863 28.2573 51.6863 28.248C51.6956 28.2293 51.7003 28.2153 51.7003 28.206C51.719 28.15 51.7283 28.094 51.7283 28.038C51.7376 27.9727 51.747 27.912 51.7563 27.856C51.7563 27.7533 51.7563 27.6413 51.7563 27.52C51.7656 27.3893 51.7703 27.2587 51.7703 27.128V26.918C51.7703 26.8247 51.7656 26.736 51.7563 26.652C51.7563 26.5587 51.7563 26.4653 51.7563 26.372C51.7563 26.344 51.7516 26.2973 51.7423 26.232C51.7423 26.1573 51.7423 26.0873 51.7423 26.022C51.733 25.9193 51.7143 25.826 51.6863 25.742C51.6676 25.6487 51.635 25.56 51.5883 25.476C51.5883 25.476 51.579 25.4573 51.5603 25.42C51.551 25.4013 51.5323 25.378 51.5043 25.35C51.5043 25.3407 51.495 25.3267 51.4763 25.308L51.3923 25.224C51.327 25.168 51.2616 25.14 51.1963 25.14C51.131 25.14 51.061 25.1493 50.9863 25.168C50.9116 25.1773 50.8323 25.196 50.7483 25.224C50.6643 25.2427 50.5803 25.2567 50.4963 25.266C50.459 25.2753 50.417 25.2847 50.3703 25.294C50.333 25.294 50.2956 25.2893 50.2583 25.28C50.193 25.2613 50.1276 25.2333 50.0623 25.196C49.997 25.1493 49.9363 25.1073 49.8803 25.07C49.8336 25.0233 49.7963 24.9907 49.7683 24.972ZM62.5536 33.918C62.5443 33.9647 62.5396 34.0393 62.5396 34.142C62.5396 34.2447 62.5256 34.2727 62.4976 34.226C62.4603 34.1513 62.4509 34.0627 62.4696 33.96C62.4976 33.8667 62.4883 33.7827 62.4416 33.708C62.4229 33.6707 62.4136 33.6893 62.4136 33.764C62.4136 33.848 62.4136 33.9273 62.4136 34.002C62.4136 34.0767 62.4043 34.1 62.3856 34.072C62.3483 33.9787 62.3343 33.8807 62.3436 33.778C62.3623 33.6847 62.3623 33.5913 62.3436 33.498C62.2969 33.4607 62.2503 33.4187 62.2036 33.372C62.1663 33.3253 62.1336 33.2833 62.1056 33.246C62.0683 33.1993 62.0356 33.1527 62.0076 33.106C61.9796 33.0687 61.9516 33.0313 61.9236 32.994C61.8489 32.9193 61.7789 32.826 61.7136 32.714L61.5456 32.42C61.5456 32.4107 61.5316 32.378 61.5036 32.322C61.4756 32.2753 61.4523 32.2427 61.4336 32.224C61.4149 32.2053 61.3963 32.1913 61.3776 32.182C61.3403 32.182 61.3216 32.196 61.3216 32.224C61.3123 32.3173 61.3076 32.406 61.3076 32.49C61.3076 32.5833 61.2983 32.6767 61.2796 32.77C61.2796 32.7887 61.2749 32.7747 61.2656 32.728C61.2563 32.6813 61.2516 32.644 61.2516 32.616C61.2423 32.5413 61.2329 32.462 61.2236 32.378C61.2236 32.294 61.2189 32.2147 61.2096 32.14H61.1256C60.5656 32.1213 60.0569 32.042 59.5996 31.902C59.1423 31.762 58.7503 31.5473 58.4236 31.258L58.3396 31.188L58.2416 31.09C57.9989 30.8287 57.7983 30.5207 57.6396 30.166C57.4903 29.8113 57.3923 29.3913 57.3456 28.906C57.3363 28.906 57.3316 28.8967 57.3316 28.878C57.3223 28.8593 57.3176 28.8127 57.3176 28.738C57.3176 28.7287 57.3176 28.7193 57.3176 28.71C57.3269 28.7007 57.3316 28.6913 57.3316 28.682C57.3223 28.6353 57.3176 28.5887 57.3176 28.542C57.3176 28.486 57.3176 28.43 57.3176 28.374V28.276C57.3269 27.716 57.4156 27.2167 57.5836 26.778C57.7516 26.3393 57.9849 25.966 58.2836 25.658C58.3023 25.6487 58.3116 25.6393 58.3116 25.63C58.3209 25.6207 58.3303 25.6113 58.3396 25.602C58.3489 25.5927 58.3676 25.5787 58.3956 25.56C58.4236 25.532 58.4376 25.518 58.4376 25.518C58.4656 25.49 58.4889 25.4713 58.5076 25.462C59.1983 24.874 60.1316 24.58 61.3076 24.58H61.6016C61.6389 24.58 61.6623 24.5847 61.6716 24.594C61.7556 24.594 61.8163 24.5987 61.8536 24.608C61.9843 24.5987 62.0823 24.608 62.1476 24.636C62.1943 24.6453 62.2409 24.6547 62.2876 24.664C62.3343 24.664 62.3809 24.6733 62.4276 24.692C62.9129 24.7853 63.3329 24.9487 63.6876 25.182C64.0423 25.406 64.3363 25.6767 64.5696 25.994C64.6163 26.0313 64.6536 26.078 64.6816 26.134C64.7096 26.19 64.7376 26.2413 64.7656 26.288L64.8776 26.484C64.8869 26.512 64.8963 26.54 64.9056 26.568C64.9243 26.5867 64.9383 26.61 64.9476 26.638C64.9663 26.666 64.9803 26.694 64.9896 26.722C64.9989 26.75 65.0083 26.778 65.0176 26.806C65.0643 26.9367 65.1063 27.072 65.1436 27.212C65.1903 27.352 65.2229 27.492 65.2416 27.632C65.2416 27.6693 65.2463 27.6973 65.2556 27.716C65.2743 27.7907 65.2836 27.8653 65.2836 27.94C65.2836 28.0147 65.2883 28.0893 65.2976 28.164V28.808C65.2976 28.9387 65.2416 29.046 65.1296 29.13C65.1016 29.1487 65.0689 29.1767 65.0316 29.214C65.0129 29.2607 64.9943 29.284 64.9756 29.284C64.9756 29.284 64.9569 29.2653 64.9196 29.228C64.9009 29.228 64.8729 29.2327 64.8356 29.242C64.7983 29.2513 64.7703 29.2607 64.7516 29.27C64.7143 29.2793 64.6816 29.2887 64.6536 29.298C64.6256 29.298 64.5929 29.298 64.5556 29.298C64.4809 29.3073 64.4109 29.326 64.3456 29.354C64.2803 29.382 64.2103 29.4053 64.1356 29.424C64.0796 29.4333 64.0189 29.438 63.9536 29.438C63.8883 29.438 63.8229 29.438 63.7576 29.438C63.6736 29.4473 63.5943 29.466 63.5196 29.494C63.4543 29.522 63.3843 29.5313 63.3096 29.522C63.2536 29.5127 63.1976 29.5033 63.1416 29.494C63.0856 29.4753 63.0249 29.4613 62.9596 29.452C62.9223 29.4613 62.8849 29.4707 62.8476 29.48C62.8196 29.4893 62.7869 29.4987 62.7496 29.508C62.7216 29.5173 62.6936 29.522 62.6656 29.522C62.6376 29.522 62.6096 29.5313 62.5816 29.55C62.5536 29.5687 62.5116 29.606 62.4556 29.662H64.3736C64.4109 29.662 64.4483 29.662 64.4856 29.662C64.5323 29.6527 64.5789 29.648 64.6256 29.648H64.6956C64.7516 29.648 64.8169 29.6573 64.8916 29.676C64.9103 29.676 64.9243 29.6807 64.9336 29.69C64.9429 29.69 64.9523 29.69 64.9616 29.69C65.0269 29.718 65.0736 29.7693 65.1016 29.844C65.1203 29.9 65.1249 29.9467 65.1156 29.984C65.1156 30.0493 65.1016 30.124 65.0736 30.208L65.0316 30.32C64.9756 30.4693 64.9009 30.5953 64.8076 30.698C64.7703 30.7447 64.7329 30.7913 64.6956 30.838C64.6583 30.8847 64.6163 30.9313 64.5696 30.978C64.5323 31.0153 64.4949 31.0527 64.4576 31.09C64.4203 31.1273 64.3783 31.1647 64.3316 31.202L64.2476 31.286C64.2009 31.3327 64.1589 31.3887 64.1216 31.454C64.0936 31.51 64.0609 31.566 64.0236 31.622C63.9956 31.65 63.9769 31.6733 63.9676 31.692C63.9863 31.6733 63.9863 31.6827 63.9676 31.72C63.9489 31.7573 63.9303 31.7667 63.9116 31.748C63.8929 31.7947 63.8696 31.8367 63.8416 31.874C63.8229 31.9113 63.7949 31.9673 63.7576 32.042C63.7389 32.0887 63.7156 32.1307 63.6876 32.168C63.6689 32.2147 63.6503 32.2613 63.6316 32.308C63.5756 32.4107 63.5243 32.4947 63.4776 32.56C63.4683 32.588 63.4543 32.6113 63.4356 32.63C63.4263 32.658 63.4123 32.6813 63.3936 32.7L63.3376 32.784C63.3283 32.7933 63.3189 32.8073 63.3096 32.826C63.3003 32.8447 63.2863 32.8633 63.2676 32.882C63.2116 32.9473 63.1556 33.008 63.0996 33.064C63.0436 33.1293 62.9876 33.1947 62.9316 33.26L62.8336 33.358C62.8149 33.386 62.7916 33.414 62.7636 33.442C62.7449 33.47 62.7216 33.4933 62.6936 33.512C62.6563 33.5493 62.6283 33.568 62.6096 33.568C62.6003 33.624 62.5909 33.68 62.5816 33.736C62.5816 33.8013 62.5723 33.862 62.5536 33.918ZM60.8036 27.436H60.8736C60.9949 27.436 61.1163 27.436 61.2376 27.436C61.3589 27.4267 61.4803 27.4267 61.6016 27.436L61.8676 27.422V27.254C61.8583 27.2447 61.8536 27.2353 61.8536 27.226C61.8536 27.1887 61.8489 27.1467 61.8396 27.1C61.8396 27.0533 61.8349 27.0113 61.8256 26.974L61.7416 26.778C61.7323 26.7687 61.7276 26.764 61.7276 26.764C61.7276 26.7547 61.7229 26.7453 61.7136 26.736C61.6669 26.6707 61.6156 26.6287 61.5596 26.61C61.5596 26.6007 61.5456 26.596 61.5176 26.596H61.5036C61.4383 26.596 61.3729 26.6007 61.3076 26.61C61.2423 26.61 61.1769 26.6147 61.1116 26.624C61.0929 26.6333 61.0649 26.6427 61.0276 26.652C60.9996 26.652 60.9716 26.6613 60.9436 26.68C60.9343 26.6893 60.9296 26.6987 60.9296 26.708C60.9296 26.708 60.9249 26.7127 60.9156 26.722C60.8969 26.7407 60.8829 26.764 60.8736 26.792C60.8643 26.82 60.8503 26.8433 60.8316 26.862C60.7756 27.0113 60.7476 27.1187 60.7476 27.184C60.7569 27.2493 60.7756 27.3333 60.8036 27.436ZM61.1816 30.096C61.2003 30.1053 61.2563 30.11 61.3496 30.11C61.4056 30.0913 61.4569 30.0633 61.5036 30.026C61.5596 29.9887 61.6063 29.9513 61.6436 29.914L61.7696 29.788C61.8443 29.732 61.9003 29.6993 61.9376 29.69C61.9749 29.6807 62.0169 29.6713 62.0636 29.662C61.9983 29.6433 61.9329 29.6247 61.8676 29.606C61.8116 29.5873 61.7509 29.5687 61.6856 29.55C61.5829 29.5127 61.4803 29.4707 61.3776 29.424C61.2843 29.3773 61.1863 29.3353 61.0836 29.298L60.8036 29.214C60.7849 29.1953 60.7663 29.186 60.7476 29.186V29.256C60.7476 29.2653 60.7476 29.3073 60.7476 29.382C60.7569 29.4473 60.7616 29.4893 60.7616 29.508C60.7709 29.6107 60.7943 29.7133 60.8316 29.816C60.8783 29.9093 60.9389 29.984 61.0136 30.04L61.1256 30.082C61.1349 30.0913 61.1536 30.096 61.1816 30.096ZM70.6742 31.594C70.6742 31.6407 70.6649 31.692 70.6462 31.748C70.6462 31.748 70.6369 31.7667 70.6182 31.804L70.6042 31.818C70.5949 31.846 70.5622 31.8833 70.5062 31.93C70.4596 31.9673 70.4316 31.9907 70.4222 32L70.4082 32.014C70.4082 32.0233 70.4036 32.028 70.3942 32.028C70.3942 32.028 70.3942 32.0327 70.3942 32.042C70.3756 32.0887 70.3569 32.112 70.3382 32.112C70.3009 32.168 70.2636 32.224 70.2262 32.28C70.1982 32.336 70.1609 32.3873 70.1142 32.434C70.0769 32.4807 70.0302 32.5227 69.9742 32.56C69.9276 32.5973 69.8809 32.6393 69.8342 32.686C69.7876 32.7327 69.7502 32.784 69.7222 32.84C69.7129 32.868 69.6989 32.8913 69.6802 32.91C69.6709 32.938 69.6616 32.9613 69.6522 32.98C69.5869 33.1107 69.5449 33.2133 69.5262 33.288C69.5076 33.3627 69.4562 33.47 69.3722 33.61C69.3629 33.6473 69.3302 33.6847 69.2742 33.722C69.2649 33.7407 69.2462 33.7873 69.2182 33.862C69.1996 33.9367 69.1622 33.9693 69.1062 33.96C69.0876 33.96 69.0642 33.9413 69.0362 33.904C69.0176 33.876 69.0036 33.8573 68.9942 33.848C68.9662 33.8013 68.9429 33.7547 68.9242 33.708C68.9056 33.6613 68.8776 33.6193 68.8402 33.582C68.8216 33.5633 68.8076 33.5447 68.7982 33.526C68.7609 33.498 68.7189 33.456 68.6722 33.4C68.6629 33.3813 68.6489 33.3627 68.6302 33.344C68.6209 33.3253 68.6069 33.3113 68.5882 33.302C68.5229 33.218 68.4669 33.1247 68.4202 33.022C68.3736 32.9287 68.3269 32.8353 68.2802 32.742C68.2709 32.714 68.2616 32.686 68.2522 32.658C68.2429 32.63 68.2289 32.602 68.2102 32.574L68.1262 32.406C68.0609 32.294 67.9909 32.2007 67.9162 32.126C67.9162 32.154 67.9069 32.168 67.8882 32.168C67.8789 32.168 67.8696 32.154 67.8602 32.126C67.8509 32.1073 67.8416 32.0933 67.8322 32.084C67.8322 32.0747 67.8276 32.0653 67.8182 32.056C67.7902 32.1493 67.7716 32.2893 67.7622 32.476C67.7529 32.672 67.7482 32.8633 67.7482 33.05C67.7576 33.246 67.7622 33.4 67.7622 33.512C67.7622 33.624 67.7576 33.6473 67.7482 33.582C67.6922 33.3673 67.6736 33.106 67.6922 32.798C67.7109 32.4993 67.6969 32.2287 67.6502 31.986C67.6316 31.9767 67.6129 31.9673 67.5942 31.958C67.5849 31.9487 67.5709 31.9393 67.5522 31.93C67.4496 31.846 67.3982 31.7527 67.3982 31.65C67.3889 31.5567 67.3842 31.4633 67.3842 31.37C67.3936 31.2767 67.3982 31.188 67.3982 31.104V22.774C67.3982 22.6807 67.3936 22.5827 67.3842 22.48C67.3842 22.3773 67.4122 22.2887 67.4682 22.214L67.5522 22.13C67.6176 22.0833 67.6922 22.06 67.7762 22.06H70.1142C70.1609 22.06 70.2076 22.06 70.2542 22.06C70.3102 22.0507 70.3616 22.0553 70.4082 22.074C70.4362 22.0833 70.4596 22.0973 70.4782 22.116C70.5062 22.1253 70.5296 22.1393 70.5482 22.158C70.5669 22.1767 70.5856 22.2047 70.6042 22.242C70.6416 22.2887 70.6602 22.354 70.6602 22.438V31.174C70.6602 31.2393 70.6649 31.3093 70.6742 31.384C70.6836 31.4493 70.6836 31.5193 70.6742 31.594ZM75.6716 24.412C75.5596 24.4307 75.4429 24.4167 75.3216 24.37C75.2096 24.3233 75.0976 24.2673 74.9856 24.202C74.9576 24.1927 74.9249 24.1833 74.8876 24.174C74.8596 24.1553 74.8269 24.1413 74.7896 24.132C74.7149 24.1133 74.6356 24.0947 74.5516 24.076C74.4769 24.048 74.4023 24.02 74.3276 23.992C74.2996 23.9827 74.2716 23.978 74.2436 23.978C74.2249 23.9687 74.2016 23.9593 74.1736 23.95L74.0616 23.908C74.0523 23.8893 74.0383 23.8753 74.0196 23.866C74.0103 23.8567 73.9963 23.8473 73.9776 23.838C73.9123 23.7727 73.8749 23.7027 73.8656 23.628V22.2C73.8656 22.116 73.8609 22.0227 73.8516 21.92C73.8516 21.8173 73.8796 21.7287 73.9356 21.654L74.0196 21.57C74.0476 21.5513 74.0896 21.5327 74.1456 21.514C74.2203 21.4953 74.2949 21.486 74.3696 21.486C74.4536 21.486 74.5283 21.4907 74.5936 21.5H76.1756C76.2596 21.4907 76.3436 21.486 76.4276 21.486C76.5209 21.4767 76.6096 21.4813 76.6936 21.5C76.7029 21.5 76.7076 21.5047 76.7076 21.514C76.7076 21.514 76.7123 21.514 76.7216 21.514C76.7309 21.514 76.7543 21.5233 76.7916 21.542C76.8383 21.5607 76.8756 21.5933 76.9036 21.64C76.9503 21.696 76.9736 21.7473 76.9736 21.794C76.9829 21.8407 76.9876 21.878 76.9876 21.906C76.9969 21.9433 77.0016 21.9807 77.0016 22.018C77.0016 22.046 77.0016 22.0787 77.0016 22.116C77.0016 22.312 76.9969 22.5127 76.9876 22.718C76.9876 22.9233 76.9876 23.124 76.9876 23.32V23.572C76.9876 23.6187 76.9829 23.656 76.9736 23.684C76.9643 23.7307 76.9363 23.7773 76.8896 23.824L76.8336 23.88C76.8149 23.8987 76.7963 23.908 76.7776 23.908C76.7683 23.9173 76.7589 23.9313 76.7496 23.95C76.7496 23.9687 76.7403 23.9827 76.7216 23.992C76.7216 23.992 76.7123 23.992 76.6936 23.992C76.6749 23.9827 76.6563 23.978 76.6376 23.978C76.6189 23.978 76.5956 23.9827 76.5676 23.992C76.5396 24.0013 76.5163 24.0107 76.4976 24.02C76.4789 24.0293 76.4556 24.0387 76.4276 24.048C76.3996 24.048 76.3763 24.0527 76.3576 24.062C76.3389 24.062 76.3249 24.0667 76.3156 24.076C76.2503 24.104 76.1849 24.1413 76.1196 24.188C76.0543 24.2347 75.9843 24.2813 75.9096 24.328C75.8349 24.3653 75.7556 24.3933 75.6716 24.412ZM77.0436 31.748C77.0343 31.7573 77.0296 31.7667 77.0296 31.776C77.0296 31.7853 77.0249 31.7947 77.0156 31.804V31.818C76.9969 31.8367 76.9783 31.8553 76.9596 31.874C76.9409 31.8927 76.9223 31.9113 76.9036 31.93C76.9036 31.93 76.8989 31.9347 76.8896 31.944C76.8896 31.944 76.8849 31.944 76.8756 31.944C76.8756 31.944 76.8709 31.9487 76.8616 31.958C76.8616 31.958 76.8569 31.958 76.8476 31.958C76.8289 31.9767 76.8103 32.0047 76.7916 32.042C76.7823 32.0513 76.7729 32.0653 76.7636 32.084C76.7636 32.1027 76.7543 32.1167 76.7356 32.126C76.6983 32.1727 76.6609 32.2147 76.6236 32.252C76.5863 32.2987 76.5489 32.3453 76.5116 32.392V32.406H76.4976C76.4976 32.4153 76.4883 32.4293 76.4696 32.448L76.2876 32.756C76.2409 32.84 76.1849 32.9007 76.1196 32.938C76.0823 32.9567 76.0636 32.966 76.0636 32.966C76.0543 33.0407 76.0589 33.1293 76.0776 33.232C76.0963 33.344 76.1056 33.4373 76.1056 33.512C76.1056 33.596 76.0729 33.6287 76.0076 33.61C75.9329 33.5913 75.8956 33.54 75.8956 33.456C75.8956 33.3813 75.9049 33.2927 75.9236 33.19C75.9516 33.0967 75.9609 33.0127 75.9516 32.938C75.9423 32.938 75.9236 32.924 75.8956 32.896C75.8676 32.868 75.8443 32.8353 75.8256 32.798C75.8069 32.77 75.7883 32.7373 75.7696 32.7C75.7416 32.672 75.7229 32.6487 75.7136 32.63L75.5876 32.504C75.5783 32.5693 75.5783 32.6627 75.5876 32.784C75.6063 32.9053 75.5923 32.9473 75.5456 32.91C75.4803 32.8633 75.4616 32.7933 75.4896 32.7C75.5176 32.6067 75.5223 32.5227 75.5036 32.448C75.4943 32.4293 75.4803 32.4153 75.4616 32.406C75.4523 32.3967 75.4383 32.3827 75.4196 32.364L75.3216 32.266C75.3029 32.238 75.2749 32.2053 75.2376 32.168C75.2189 32.2613 75.2096 32.3593 75.2096 32.462C75.2096 32.5647 75.2003 32.6673 75.1816 32.77C75.1723 32.7793 75.1629 32.7747 75.1536 32.756C75.1443 32.7373 75.1349 32.7233 75.1256 32.714C75.0976 32.6767 75.0696 32.644 75.0416 32.616C75.0229 32.588 74.9949 32.5647 74.9576 32.546C74.9109 32.5273 74.8643 32.5227 74.8176 32.532C74.7709 32.5413 74.7243 32.5273 74.6776 32.49C74.6403 32.462 74.6076 32.4293 74.5796 32.392C74.5609 32.364 74.5376 32.3313 74.5096 32.294C74.5003 32.294 74.4909 32.2893 74.4816 32.28C74.4723 32.2707 74.4629 32.2753 74.4536 32.294C74.4443 32.4527 74.4349 32.616 74.4256 32.784C74.4256 32.952 74.4163 33.12 74.3976 33.288C74.3976 33.3067 74.3883 33.2927 74.3696 33.246C74.3603 33.2087 74.3509 33.1807 74.3416 33.162C74.3229 33.106 74.3043 33.0407 74.2856 32.966C74.2669 32.9007 74.2483 32.84 74.2296 32.784C74.1923 32.6533 74.1689 32.5647 74.1596 32.518C74.1596 32.4713 74.1596 32.434 74.1596 32.406C74.1689 32.378 74.1643 32.336 74.1456 32.28C74.1363 32.2333 74.1036 32.1353 74.0476 31.986L73.9636 31.944C73.8983 31.8973 73.8516 31.8413 73.8236 31.776C73.8049 31.7107 73.7956 31.6453 73.7956 31.58C73.7863 31.5147 73.7816 31.4493 73.7816 31.384C73.7909 31.3093 73.7956 31.2393 73.7956 31.174V25.098C73.7956 25.0513 73.8003 25.014 73.8096 24.986C73.8283 24.93 73.8469 24.8927 73.8656 24.874L73.9496 24.79C73.9869 24.762 74.0476 24.7387 74.1316 24.72C74.2249 24.7013 74.3183 24.6967 74.4116 24.706C74.5143 24.7153 74.6029 24.72 74.6776 24.72H76.0636C76.1756 24.72 76.2876 24.7153 76.3996 24.706C76.5209 24.6967 76.6376 24.7013 76.7496 24.72C76.7683 24.72 76.7869 24.7247 76.8056 24.734C76.8243 24.7433 76.8429 24.7527 76.8616 24.762C76.8896 24.7713 76.9083 24.7807 76.9176 24.79C76.9456 24.818 76.9643 24.8413 76.9736 24.86C77.0109 24.8973 77.0389 24.958 77.0576 25.042C77.0669 25.0793 77.0669 25.126 77.0576 25.182C77.0576 25.2287 77.0576 25.2753 77.0576 25.322C77.0669 25.4993 77.0669 25.6767 77.0576 25.854C77.0576 26.022 77.0576 26.1947 77.0576 26.372V31.23C77.0576 31.2673 77.0576 31.3047 77.0576 31.342C77.0576 31.3793 77.0623 31.4213 77.0716 31.468C77.0716 31.5053 77.0716 31.5427 77.0716 31.58C77.0716 31.6173 77.0623 31.6733 77.0436 31.748ZM87.225 24.72C87.2996 24.7293 87.365 24.7713 87.421 24.846C87.4863 24.9113 87.5143 24.9813 87.505 25.056C87.505 25.0933 87.5003 25.1307 87.491 25.168C87.463 25.2613 87.421 25.3593 87.365 25.462C87.337 25.546 87.2996 25.6347 87.253 25.728L86.749 26.932C86.7116 27.0627 86.6696 27.1933 86.623 27.324C86.5856 27.4547 86.5436 27.576 86.497 27.688C86.4223 27.8933 86.3476 28.08 86.273 28.248C86.2076 28.416 86.1376 28.5373 86.063 28.612L85.755 29.34C85.7176 29.452 85.6803 29.5593 85.643 29.662C85.615 29.7647 85.5823 29.8627 85.545 29.956C85.517 30.0307 85.489 30.1053 85.461 30.18C85.433 30.2453 85.405 30.3013 85.377 30.348C85.2463 30.768 85.1156 31.062 84.985 31.23C84.985 31.2393 84.9803 31.244 84.971 31.244C84.971 31.244 84.971 31.2487 84.971 31.258C84.943 31.342 84.9056 31.4307 84.859 31.524C84.8496 31.552 84.8403 31.58 84.831 31.608C84.8216 31.636 84.8076 31.664 84.789 31.692C84.7516 31.7667 84.7096 31.8273 84.663 31.874C84.6723 31.8647 84.663 31.874 84.635 31.902C84.607 31.9207 84.5883 31.9347 84.579 31.944C84.551 31.9907 84.5276 32.042 84.509 32.098C84.4996 32.154 84.4856 32.21 84.467 32.266C84.4576 32.3033 84.439 32.3407 84.411 32.378C84.3923 32.4247 84.3736 32.4713 84.355 32.518C84.3456 32.546 84.3363 32.574 84.327 32.602C84.3176 32.63 84.3036 32.658 84.285 32.686C84.229 32.8073 84.1683 32.91 84.103 32.994C84.0936 33.0033 84.0796 33.0173 84.061 33.036C84.0423 33.0547 84.0236 33.0733 84.005 33.092C84.005 33.092 84.0003 33.092 83.991 33.092C83.991 33.092 83.991 33.0967 83.991 33.106C83.9816 33.106 83.977 33.106 83.977 33.106C83.977 33.1153 83.9723 33.12 83.963 33.12C83.9443 33.2133 83.9303 33.3067 83.921 33.4C83.921 33.4933 83.9116 33.5867 83.893 33.68C83.8836 33.7453 83.8743 33.806 83.865 33.862C83.865 33.9273 83.8556 33.9927 83.837 34.058C83.8276 34.0767 83.8136 34.1047 83.795 34.142C83.7856 34.1793 83.781 34.1887 83.781 34.17C83.7623 34.03 83.753 33.8853 83.753 33.736C83.7623 33.596 83.753 33.456 83.725 33.316C83.6223 33.2133 83.5756 33.1573 83.585 33.148C83.5943 33.148 83.6223 33.162 83.669 33.19C83.7156 33.2273 83.7483 33.246 83.767 33.246C83.7856 33.246 83.7436 33.1993 83.641 33.106C83.613 33.0873 83.5896 33.064 83.571 33.036C83.5523 33.036 83.543 33.0313 83.543 33.022L83.389 32.826C83.3703 32.7887 83.347 32.7467 83.319 32.7C83.3003 32.6627 83.2816 32.6253 83.263 32.588C83.2256 32.5227 83.1836 32.4573 83.137 32.392C83.0903 32.336 83.0436 32.2847 82.997 32.238C82.9876 32.2287 82.969 32.21 82.941 32.182C82.913 32.154 82.8943 32.14 82.885 32.14C82.8663 32.2333 82.857 32.3267 82.857 32.42C82.857 32.5227 82.8476 32.6207 82.829 32.714C82.829 32.7233 82.8196 32.7233 82.801 32.714C82.7916 32.714 82.7823 32.7093 82.773 32.7C82.7356 32.6813 82.703 32.644 82.675 32.588C82.647 32.5413 82.6236 32.4993 82.605 32.462C82.577 32.4153 82.549 32.3593 82.521 32.294C82.5023 32.238 82.4743 32.1913 82.437 32.154C82.4276 32.2007 82.423 32.2613 82.423 32.336C82.423 32.4107 82.3856 32.4433 82.311 32.434C82.2736 32.434 82.2363 32.406 82.199 32.35C82.1616 32.3033 82.129 32.2473 82.101 32.182C82.073 32.126 82.0496 32.0653 82.031 32C82.0216 32 82.0076 32 81.989 32C81.9796 31.9907 81.9703 31.986 81.961 31.986C81.8583 31.958 81.7883 31.9113 81.751 31.846C81.7136 31.7807 81.681 31.72 81.653 31.664C81.6436 31.664 81.639 31.664 81.639 31.664C81.639 31.6547 81.639 31.65 81.639 31.65L81.597 31.552C81.5596 31.4587 81.5223 31.3653 81.485 31.272C81.4476 31.1787 81.4103 31.0853 81.373 30.992L81.247 30.712C81.247 30.7027 81.2423 30.698 81.233 30.698C81.233 30.6887 81.233 30.6793 81.233 30.67C81.2143 30.642 81.1816 30.5953 81.135 30.53C81.1163 30.5113 81.1023 30.4927 81.093 30.474C81.0183 30.334 80.9483 30.1893 80.883 30.04C80.827 29.8813 80.7756 29.7273 80.729 29.578C80.6916 29.5127 80.659 29.424 80.631 29.312C80.5843 29.2093 80.533 29.088 80.477 28.948C80.4303 28.808 80.3836 28.6633 80.337 28.514L79.497 26.47C79.469 26.4233 79.441 26.372 79.413 26.316C79.3943 26.26 79.3756 26.204 79.357 26.148C79.3476 26.12 79.3383 26.092 79.329 26.064C79.3196 26.036 79.3056 26.0033 79.287 25.966C79.2776 25.9473 79.2683 25.9287 79.259 25.91C79.2496 25.882 79.2403 25.854 79.231 25.826L79.203 25.756C79.1843 25.7093 79.1656 25.6673 79.147 25.63C79.1283 25.5833 79.1096 25.5413 79.091 25.504C79.063 25.448 79.035 25.392 79.007 25.336C78.9883 25.2707 78.9696 25.21 78.951 25.154C78.9416 25.1167 78.937 25.07 78.937 25.014C78.9556 24.902 79.0116 24.818 79.105 24.762C79.1143 24.7527 79.133 24.748 79.161 24.748C79.1703 24.7387 79.1796 24.734 79.189 24.734C79.2076 24.734 79.2216 24.7293 79.231 24.72C79.2776 24.7107 79.3243 24.706 79.371 24.706C79.427 24.706 79.4783 24.706 79.525 24.706C79.6463 24.7153 79.763 24.72 79.875 24.72C79.9963 24.72 80.1176 24.72 80.239 24.72H81.303C81.359 24.72 81.415 24.72 81.471 24.72C81.5363 24.7107 81.6016 24.7107 81.667 24.72C81.7043 24.72 81.737 24.7247 81.765 24.734C81.8023 24.7433 81.835 24.7527 81.863 24.762C81.9003 24.7807 81.9423 24.8133 81.989 24.86C82.0636 24.9253 82.115 25.014 82.143 25.126C82.171 25.2287 82.199 25.3267 82.227 25.42C82.2363 25.4293 82.241 25.4433 82.241 25.462C82.241 25.4713 82.2456 25.4853 82.255 25.504L82.353 25.784C82.409 25.952 82.465 26.1247 82.521 26.302C82.5863 26.47 82.647 26.6333 82.703 26.792L83.039 27.772L83.081 27.898L83.137 28.08L83.207 28.262V28.304C83.2163 28.276 83.2256 28.262 83.235 28.262C83.2443 28.2527 83.249 28.2387 83.249 28.22L83.291 28.108C83.3003 28.0613 83.3143 28.0193 83.333 27.982C83.3516 27.9447 83.361 27.9213 83.361 27.912C83.4263 27.7253 83.487 27.5387 83.543 27.352C83.6083 27.156 83.6736 26.9693 83.739 26.792L83.781 26.666C83.8276 26.526 83.8743 26.3907 83.921 26.26C83.9676 26.12 84.0096 26.0033 84.047 25.91C84.0656 25.854 84.0843 25.798 84.103 25.742C84.1216 25.686 84.1356 25.6347 84.145 25.588C84.1636 25.5227 84.1823 25.4573 84.201 25.392C84.229 25.3267 84.257 25.2613 84.285 25.196C84.313 25.112 84.3456 25.0327 84.383 24.958C84.4296 24.874 84.4903 24.8133 84.565 24.776C84.649 24.7293 84.7423 24.7107 84.845 24.72C84.9476 24.72 85.0456 24.72 85.139 24.72H86.945C86.9916 24.72 87.0383 24.72 87.085 24.72C87.141 24.7107 87.1876 24.7107 87.225 24.72ZM94.0766 33.918C94.0672 33.9647 94.0626 34.0393 94.0626 34.142C94.0626 34.2447 94.0486 34.2727 94.0206 34.226C93.9832 34.1513 93.9739 34.0627 93.9926 33.96C94.0206 33.8667 94.0112 33.7827 93.9646 33.708C93.9459 33.6707 93.9366 33.6893 93.9366 33.764C93.9366 33.848 93.9366 33.9273 93.9366 34.002C93.9366 34.0767 93.9272 34.1 93.9086 34.072C93.8712 33.9787 93.8572 33.8807 93.8666 33.778C93.8852 33.6847 93.8852 33.5913 93.8666 33.498C93.8199 33.4607 93.7732 33.4187 93.7266 33.372C93.6892 33.3253 93.6566 33.2833 93.6286 33.246C93.5912 33.1993 93.5586 33.1527 93.5306 33.106C93.5026 33.0687 93.4746 33.0313 93.4466 32.994C93.3719 32.9193 93.3019 32.826 93.2366 32.714L93.0686 32.42C93.0686 32.4107 93.0546 32.378 93.0266 32.322C92.9986 32.2753 92.9752 32.2427 92.9566 32.224C92.9379 32.2053 92.9192 32.1913 92.9006 32.182C92.8632 32.182 92.8446 32.196 92.8446 32.224C92.8352 32.3173 92.8306 32.406 92.8306 32.49C92.8306 32.5833 92.8212 32.6767 92.8026 32.77C92.8026 32.7887 92.7979 32.7747 92.7886 32.728C92.7792 32.6813 92.7746 32.644 92.7746 32.616C92.7652 32.5413 92.7559 32.462 92.7466 32.378C92.7466 32.294 92.7419 32.2147 92.7326 32.14H92.6486C92.0886 32.1213 91.5799 32.042 91.1226 31.902C90.6652 31.762 90.2732 31.5473 89.9466 31.258L89.8626 31.188L89.7646 31.09C89.5219 30.8287 89.3212 30.5207 89.1626 30.166C89.0132 29.8113 88.9152 29.3913 88.8686 28.906C88.8592 28.906 88.8546 28.8967 88.8546 28.878C88.8452 28.8593 88.8406 28.8127 88.8406 28.738C88.8406 28.7287 88.8406 28.7193 88.8406 28.71C88.8499 28.7007 88.8546 28.6913 88.8546 28.682C88.8452 28.6353 88.8406 28.5887 88.8406 28.542C88.8406 28.486 88.8406 28.43 88.8406 28.374V28.276C88.8499 27.716 88.9386 27.2167 89.1066 26.778C89.2746 26.3393 89.5079 25.966 89.8066 25.658C89.8252 25.6487 89.8346 25.6393 89.8346 25.63C89.8439 25.6207 89.8532 25.6113 89.8626 25.602C89.8719 25.5927 89.8906 25.5787 89.9186 25.56C89.9466 25.532 89.9606 25.518 89.9606 25.518C89.9886 25.49 90.0119 25.4713 90.0306 25.462C90.7212 24.874 91.6546 24.58 92.8306 24.58H93.1246C93.1619 24.58 93.1852 24.5847 93.1946 24.594C93.2786 24.594 93.3392 24.5987 93.3766 24.608C93.5072 24.5987 93.6052 24.608 93.6706 24.636C93.7172 24.6453 93.7639 24.6547 93.8106 24.664C93.8572 24.664 93.9039 24.6733 93.9506 24.692C94.4359 24.7853 94.8559 24.9487 95.2106 25.182C95.5652 25.406 95.8592 25.6767 96.0926 25.994C96.1392 26.0313 96.1766 26.078 96.2046 26.134C96.2326 26.19 96.2606 26.2413 96.2886 26.288L96.4006 26.484C96.4099 26.512 96.4192 26.54 96.4286 26.568C96.4472 26.5867 96.4612 26.61 96.4706 26.638C96.4892 26.666 96.5032 26.694 96.5126 26.722C96.5219 26.75 96.5312 26.778 96.5406 26.806C96.5872 26.9367 96.6292 27.072 96.6666 27.212C96.7132 27.352 96.7459 27.492 96.7646 27.632C96.7646 27.6693 96.7692 27.6973 96.7786 27.716C96.7972 27.7907 96.8066 27.8653 96.8066 27.94C96.8066 28.0147 96.8112 28.0893 96.8206 28.164V28.808C96.8206 28.9387 96.7646 29.046 96.6526 29.13C96.6246 29.1487 96.5919 29.1767 96.5546 29.214C96.5359 29.2607 96.5172 29.284 96.4986 29.284C96.4986 29.284 96.4799 29.2653 96.4426 29.228C96.4239 29.228 96.3959 29.2327 96.3586 29.242C96.3212 29.2513 96.2932 29.2607 96.2746 29.27C96.2372 29.2793 96.2046 29.2887 96.1766 29.298C96.1486 29.298 96.1159 29.298 96.0786 29.298C96.0039 29.3073 95.9339 29.326 95.8686 29.354C95.8032 29.382 95.7332 29.4053 95.6586 29.424C95.6026 29.4333 95.5419 29.438 95.4766 29.438C95.4112 29.438 95.3459 29.438 95.2806 29.438C95.1966 29.4473 95.1172 29.466 95.0426 29.494C94.9772 29.522 94.9072 29.5313 94.8326 29.522C94.7766 29.5127 94.7206 29.5033 94.6646 29.494C94.6086 29.4753 94.5479 29.4613 94.4826 29.452C94.4452 29.4613 94.4079 29.4707 94.3706 29.48C94.3426 29.4893 94.3099 29.4987 94.2726 29.508C94.2446 29.5173 94.2166 29.522 94.1886 29.522C94.1606 29.522 94.1326 29.5313 94.1046 29.55C94.0766 29.5687 94.0346 29.606 93.9786 29.662H95.8966C95.9339 29.662 95.9712 29.662 96.0086 29.662C96.0552 29.6527 96.1019 29.648 96.1486 29.648H96.2186C96.2746 29.648 96.3399 29.6573 96.4146 29.676C96.4332 29.676 96.4472 29.6807 96.4566 29.69C96.4659 29.69 96.4752 29.69 96.4846 29.69C96.5499 29.718 96.5966 29.7693 96.6246 29.844C96.6432 29.9 96.6479 29.9467 96.6386 29.984C96.6386 30.0493 96.6246 30.124 96.5966 30.208L96.5546 30.32C96.4986 30.4693 96.4239 30.5953 96.3306 30.698C96.2932 30.7447 96.2559 30.7913 96.2186 30.838C96.1812 30.8847 96.1392 30.9313 96.0926 30.978C96.0552 31.0153 96.0179 31.0527 95.9806 31.09C95.9432 31.1273 95.9012 31.1647 95.8546 31.202L95.7706 31.286C95.7239 31.3327 95.6819 31.3887 95.6446 31.454C95.6166 31.51 95.5839 31.566 95.5466 31.622C95.5186 31.65 95.4999 31.6733 95.4906 31.692C95.5092 31.6733 95.5092 31.6827 95.4906 31.72C95.4719 31.7573 95.4532 31.7667 95.4346 31.748C95.4159 31.7947 95.3926 31.8367 95.3646 31.874C95.3459 31.9113 95.3179 31.9673 95.2806 32.042C95.2619 32.0887 95.2386 32.1307 95.2106 32.168C95.1919 32.2147 95.1732 32.2613 95.1546 32.308C95.0986 32.4107 95.0472 32.4947 95.0006 32.56C94.9912 32.588 94.9772 32.6113 94.9586 32.63C94.9492 32.658 94.9352 32.6813 94.9166 32.7L94.8606 32.784C94.8512 32.7933 94.8419 32.8073 94.8326 32.826C94.8232 32.8447 94.8092 32.8633 94.7906 32.882C94.7346 32.9473 94.6786 33.008 94.6226 33.064C94.5666 33.1293 94.5106 33.1947 94.4546 33.26L94.3566 33.358C94.3379 33.386 94.3146 33.414 94.2866 33.442C94.2679 33.47 94.2446 33.4933 94.2166 33.512C94.1792 33.5493 94.1512 33.568 94.1326 33.568C94.1232 33.624 94.1139 33.68 94.1046 33.736C94.1046 33.8013 94.0952 33.862 94.0766 33.918ZM92.3266 27.436H92.3966C92.5179 27.436 92.6392 27.436 92.7606 27.436C92.8819 27.4267 93.0032 27.4267 93.1246 27.436L93.3906 27.422V27.254C93.3812 27.2447 93.3766 27.2353 93.3766 27.226C93.3766 27.1887 93.3719 27.1467 93.3626 27.1C93.3626 27.0533 93.3579 27.0113 93.3486 26.974L93.2646 26.778C93.2552 26.7687 93.2506 26.764 93.2506 26.764C93.2506 26.7547 93.2459 26.7453 93.2366 26.736C93.1899 26.6707 93.1386 26.6287 93.0826 26.61C93.0826 26.6007 93.0686 26.596 93.0406 26.596H93.0266C92.9612 26.596 92.8959 26.6007 92.8306 26.61C92.7652 26.61 92.6999 26.6147 92.6346 26.624C92.6159 26.6333 92.5879 26.6427 92.5506 26.652C92.5226 26.652 92.4946 26.6613 92.4666 26.68C92.4572 26.6893 92.4526 26.6987 92.4526 26.708C92.4526 26.708 92.4479 26.7127 92.4386 26.722C92.4199 26.7407 92.4059 26.764 92.3966 26.792C92.3872 26.82 92.3732 26.8433 92.3546 26.862C92.2986 27.0113 92.2706 27.1187 92.2706 27.184C92.2799 27.2493 92.2986 27.3333 92.3266 27.436ZM92.7046 30.096C92.7232 30.1053 92.7792 30.11 92.8726 30.11C92.9286 30.0913 92.9799 30.0633 93.0266 30.026C93.0826 29.9887 93.1292 29.9513 93.1666 29.914L93.2926 29.788C93.3672 29.732 93.4232 29.6993 93.4606 29.69C93.4979 29.6807 93.5399 29.6713 93.5866 29.662C93.5212 29.6433 93.4559 29.6247 93.3906 29.606C93.3346 29.5873 93.2739 29.5687 93.2086 29.55C93.1059 29.5127 93.0032 29.4707 92.9006 29.424C92.8072 29.3773 92.7092 29.3353 92.6066 29.298L92.3266 29.214C92.3079 29.1953 92.2892 29.186 92.2706 29.186V29.256C92.2706 29.2653 92.2706 29.3073 92.2706 29.382C92.2799 29.4473 92.2846 29.4893 92.2846 29.508C92.2939 29.6107 92.3172 29.7133 92.3546 29.816C92.4012 29.9093 92.4619 29.984 92.5366 30.04L92.6486 30.082C92.6579 30.0913 92.6766 30.096 92.7046 30.096ZM105.361 26.834C105.361 26.89 105.361 26.946 105.361 27.002C105.371 27.058 105.375 27.1187 105.375 27.184C105.375 27.2213 105.375 27.2587 105.375 27.296C105.375 27.3333 105.366 27.3707 105.347 27.408C105.319 27.4827 105.273 27.5433 105.207 27.59C105.207 27.59 105.203 27.59 105.193 27.59C105.193 27.59 105.193 27.5947 105.193 27.604C105.184 27.604 105.175 27.6087 105.165 27.618C105.165 27.618 105.161 27.618 105.151 27.618C105.105 27.6833 105.063 27.7487 105.025 27.814C104.988 27.8793 104.946 27.94 104.899 27.996C104.89 28.0053 104.881 28.0193 104.871 28.038C104.862 28.0473 104.848 28.0567 104.829 28.066C104.82 28.066 104.811 28.0707 104.801 28.08C104.801 28.08 104.797 28.0847 104.787 28.094C104.787 28.094 104.783 28.094 104.773 28.094C104.764 28.1033 104.75 28.1687 104.731 28.29C104.713 28.4113 104.689 28.4907 104.661 28.528C104.652 28.5373 104.633 28.5327 104.605 28.514C104.577 28.458 104.563 28.3973 104.563 28.332C104.554 28.2853 104.545 28.234 104.535 28.178C104.535 28.122 104.526 28.066 104.507 28.01L104.423 27.926C104.405 27.9073 104.372 27.8747 104.325 27.828C104.288 27.7813 104.246 27.7393 104.199 27.702L104.185 27.688C104.176 27.688 104.171 27.6927 104.171 27.702C104.171 27.702 104.167 27.702 104.157 27.702C104.139 27.7207 104.115 27.7487 104.087 27.786C104.069 27.814 104.041 27.8327 104.003 27.842C103.957 27.8513 103.919 27.8327 103.891 27.786C103.882 27.7953 103.859 27.8 103.821 27.8C103.784 27.8 103.756 27.7953 103.737 27.786L103.667 27.954C103.639 28.0193 103.607 28.0753 103.569 28.122C103.541 28.1687 103.504 28.2153 103.457 28.262C103.429 28.29 103.401 28.3227 103.373 28.36C103.345 28.388 103.317 28.4113 103.289 28.43C103.252 28.4673 103.233 28.4767 103.233 28.458C103.215 28.346 103.205 28.2573 103.205 28.192C103.215 28.1173 103.205 28.0193 103.177 27.898C103.159 27.9073 103.14 27.9213 103.121 27.94C103.084 27.9587 103.065 27.9727 103.065 27.982C103.047 28.0473 103.033 28.1173 103.023 28.192C103.023 28.2667 103.014 28.3367 102.995 28.402C102.986 28.4113 102.972 28.4113 102.953 28.402C102.944 28.3927 102.935 28.3833 102.925 28.374C102.916 28.2993 102.907 28.2293 102.897 28.164C102.897 28.0987 102.888 28.0333 102.869 27.968C102.869 27.9493 102.86 27.94 102.841 27.94C102.832 27.9307 102.823 27.9213 102.813 27.912C102.813 27.912 102.809 27.9073 102.799 27.898C102.79 27.8887 102.776 27.8793 102.757 27.87C102.757 27.9167 102.748 27.9493 102.729 27.968C102.729 27.968 102.706 27.9447 102.659 27.898H102.631C102.622 27.898 102.613 27.8933 102.603 27.884C102.603 27.8653 102.599 27.8513 102.589 27.842C102.58 27.8513 102.571 27.8607 102.561 27.87C102.552 27.87 102.543 27.8747 102.533 27.884C102.515 27.912 102.496 27.94 102.477 27.968C102.459 27.996 102.44 28.024 102.421 28.052C102.412 28.0613 102.407 28.0753 102.407 28.094C102.407 28.1033 102.403 28.1173 102.393 28.136C102.365 28.22 102.347 28.3087 102.337 28.402C102.337 28.4953 102.337 28.5887 102.337 28.682V31.454C102.337 31.5007 102.337 31.552 102.337 31.608C102.347 31.6547 102.342 31.7013 102.323 31.748C102.323 31.7573 102.319 31.7667 102.309 31.776C102.309 31.776 102.309 31.7807 102.309 31.79C102.309 31.79 102.3 31.7993 102.281 31.818C102.244 31.874 102.211 31.9113 102.183 31.93C102.202 31.9113 102.193 31.9207 102.155 31.958C102.118 31.986 102.095 32.0093 102.085 32.028C102.085 32.0373 102.081 32.0467 102.071 32.056C102.062 32.0747 102.053 32.098 102.043 32.126C102.043 32.154 102.029 32.1633 102.001 32.154C102.001 32.1633 101.997 32.168 101.987 32.168C101.969 32.2053 101.959 32.2287 101.959 32.238C101.941 32.2567 101.922 32.28 101.903 32.308C101.894 32.336 101.88 32.364 101.861 32.392C101.787 32.5227 101.735 32.6067 101.707 32.644C101.689 32.6907 101.637 32.7653 101.553 32.868C101.544 32.8773 101.53 32.8867 101.511 32.896C101.502 32.9147 101.488 32.9333 101.469 32.952C101.46 32.9613 101.441 32.9987 101.413 33.064C101.385 33.1293 101.362 33.1667 101.343 33.176C101.334 33.1853 101.315 33.1667 101.287 33.12C101.278 33.092 101.273 33.0593 101.273 33.022C101.273 32.994 101.264 32.966 101.245 32.938L101.161 32.84C101.124 32.8027 101.091 32.756 101.063 32.7C101.007 32.6253 100.961 32.546 100.923 32.462C100.886 32.378 100.844 32.294 100.797 32.21C100.797 32.2007 100.793 32.196 100.783 32.196C100.783 32.196 100.783 32.1913 100.783 32.182C100.755 32.154 100.741 32.1493 100.741 32.168C100.723 32.2427 100.713 32.322 100.713 32.406C100.723 32.49 100.713 32.5693 100.685 32.644C100.676 32.672 100.667 32.658 100.657 32.602C100.648 32.546 100.639 32.504 100.629 32.476L100.517 32.154V32.14C100.489 32.168 100.471 32.182 100.461 32.182C100.443 32.182 100.424 32.1727 100.405 32.154C100.377 32.2193 100.349 32.2847 100.321 32.35C100.303 32.4153 100.275 32.4853 100.237 32.56C100.228 32.5693 100.219 32.5833 100.209 32.602C100.209 32.63 100.2 32.6533 100.181 32.672C100.172 32.6813 100.163 32.7 100.153 32.728C100.144 32.7653 100.135 32.7747 100.125 32.756C100.097 32.6067 100.093 32.5087 100.111 32.462C100.13 32.4247 100.102 32.3453 100.027 32.224C99.9992 32.2427 99.9759 32.2707 99.9572 32.308C99.9479 32.3733 99.9385 32.4433 99.9292 32.518C99.9292 32.5927 99.9199 32.6673 99.9012 32.742C99.9012 32.7513 99.8872 32.7793 99.8592 32.826C99.8405 32.882 99.8172 32.9147 99.7892 32.924C99.7425 32.9333 99.7052 32.9007 99.6772 32.826C99.6492 32.7513 99.6305 32.7047 99.6212 32.686C99.5839 32.602 99.5559 32.5133 99.5372 32.42C99.5279 32.336 99.5045 32.2567 99.4672 32.182C99.4485 32.1633 99.4299 32.1447 99.4112 32.126C99.3925 32.1073 99.3739 32.0887 99.3552 32.07C99.3272 32.0513 99.3132 32.0327 99.3132 32.014C99.2945 32.0047 99.2665 32 99.2292 32C99.2199 32 99.2105 32 99.2012 32C99.2012 31.9907 99.1919 31.986 99.1732 31.986C99.0985 31.958 99.0379 31.9113 98.9912 31.846C98.9725 31.8273 98.9539 31.79 98.9352 31.734C98.9165 31.6687 98.9072 31.594 98.9072 31.51C98.9165 31.426 98.9212 31.3513 98.9212 31.286V26.246C98.9212 26.106 98.9212 25.952 98.9212 25.784C98.9212 25.6067 98.9165 25.4293 98.9072 25.252C98.9072 25.2053 98.9072 25.1587 98.9072 25.112C98.9165 25.056 98.9259 25.0093 98.9352 24.972C98.9632 24.888 99.0145 24.8227 99.0892 24.776C99.1359 24.7573 99.1732 24.7433 99.2012 24.734C99.2292 24.7247 99.2712 24.72 99.3272 24.72C99.3925 24.7107 99.4579 24.7107 99.5232 24.72C99.5885 24.72 99.6492 24.72 99.7052 24.72H101.329C101.404 24.72 101.483 24.7153 101.567 24.706C101.651 24.6967 101.731 24.7013 101.805 24.72C101.833 24.72 101.857 24.7247 101.875 24.734C101.969 24.762 102.029 24.8133 102.057 24.888C102.104 24.9533 102.127 25.0233 102.127 25.098V25.588L102.211 25.504C102.23 25.4947 102.244 25.4853 102.253 25.476C102.263 25.4667 102.267 25.462 102.267 25.462C102.286 25.4433 102.333 25.406 102.407 25.35C102.491 25.294 102.552 25.2567 102.589 25.238C102.645 25.1913 102.701 25.154 102.757 25.126C102.823 25.0887 102.883 25.056 102.939 25.028C103.014 24.9813 103.093 24.944 103.177 24.916C103.271 24.888 103.364 24.8647 103.457 24.846C103.728 24.762 104.013 24.72 104.311 24.72H104.549C104.596 24.72 104.647 24.72 104.703 24.72C104.759 24.7107 104.815 24.706 104.871 24.706C104.937 24.706 104.997 24.7107 105.053 24.72C105.119 24.7293 105.17 24.7527 105.207 24.79C105.263 24.8273 105.305 24.8787 105.333 24.944C105.352 25 105.361 25.0467 105.361 25.084V25.154C105.371 25.2193 105.371 25.2847 105.361 25.35C105.361 25.406 105.361 25.462 105.361 25.518V26.834ZM115.449 25.21C115.44 25.2473 115.426 25.28 115.407 25.308C115.398 25.336 115.384 25.3687 115.365 25.406C115.356 25.4153 115.351 25.4247 115.351 25.434C115.351 25.4433 115.347 25.4527 115.337 25.462L115.169 25.826L114.833 26.61C114.796 26.7313 114.754 26.8527 114.707 26.974C114.661 27.086 114.614 27.198 114.567 27.31C114.493 27.4873 114.427 27.618 114.371 27.702L114.273 27.912C114.124 28.332 113.975 28.7287 113.825 29.102C113.685 29.4753 113.559 29.718 113.447 29.83L113.405 29.942C113.34 30.166 113.27 30.376 113.195 30.572C113.13 30.7587 113.06 30.8987 112.985 30.992C112.967 31.0293 112.957 31.0527 112.957 31.062C112.92 31.1647 112.883 31.2673 112.845 31.37C112.808 31.4633 112.766 31.5567 112.719 31.65C112.663 31.7993 112.607 31.9487 112.551 32.098C112.495 32.2473 112.435 32.3827 112.369 32.504C112.351 32.5413 112.341 32.5647 112.341 32.574L112.257 32.742C112.164 32.9753 112.075 33.1713 111.991 33.33C111.907 33.498 111.842 33.6147 111.795 33.68C111.758 33.7547 111.725 33.834 111.697 33.918C111.688 33.9273 111.683 33.9367 111.683 33.946C111.683 33.9553 111.679 33.9647 111.669 33.974C111.651 34.03 111.632 34.072 111.613 34.1C111.604 34.1373 111.595 34.17 111.585 34.198C111.576 34.226 111.562 34.254 111.543 34.282C111.515 34.3473 111.478 34.4127 111.431 34.478C111.375 34.534 111.333 34.5713 111.305 34.59C111.277 34.646 111.254 34.702 111.235 34.758C111.226 34.8233 111.212 34.884 111.193 34.94L111.025 35.43C111.016 35.4487 111.007 35.4813 110.997 35.528C110.988 35.5747 110.979 35.5887 110.969 35.57C110.951 35.458 110.941 35.3413 110.941 35.22C110.941 35.0987 110.932 34.982 110.913 34.87C110.82 34.926 110.727 34.982 110.633 35.038C110.549 35.094 110.456 35.1313 110.353 35.15C110.288 35.1593 110.232 35.1453 110.185 35.108C110.148 35.0707 110.111 35.0333 110.073 34.996C110.027 34.9493 109.989 34.898 109.961 34.842C109.961 34.842 109.952 34.828 109.933 34.8C109.915 34.8 109.905 34.8 109.905 34.8C109.887 34.8653 109.877 34.9353 109.877 35.01C109.887 35.0847 109.877 35.1593 109.849 35.234C109.84 35.2527 109.831 35.2387 109.821 35.192C109.812 35.1547 109.803 35.1267 109.793 35.108L109.751 34.828C109.723 34.912 109.681 34.9727 109.625 35.01C109.607 35.0287 109.588 35.038 109.569 35.038C109.56 35.0847 109.551 35.1313 109.541 35.178C109.541 35.234 109.532 35.2853 109.513 35.332C109.504 35.3413 109.49 35.332 109.471 35.304C109.462 35.2853 109.457 35.2667 109.457 35.248C109.448 35.2013 109.439 35.1547 109.429 35.108C109.429 35.0613 109.42 35.0193 109.401 34.982C109.383 34.9633 109.359 34.94 109.331 34.912C109.313 34.8933 109.294 34.87 109.275 34.842L109.205 34.772C109.205 34.8093 109.196 34.8327 109.177 34.842C109.177 34.8513 109.14 34.8187 109.065 34.744C109.065 34.7533 109.061 34.758 109.051 34.758C109.051 34.758 109.051 34.7627 109.051 34.772C109.042 34.912 109.037 35.0473 109.037 35.178C109.037 35.318 109.028 35.458 109.009 35.598C109 35.6353 108.995 35.6727 108.995 35.71C108.995 35.7567 108.981 35.794 108.953 35.822C108.944 35.8313 108.93 35.822 108.911 35.794C108.902 35.766 108.893 35.7427 108.883 35.724C108.874 35.6493 108.865 35.5747 108.855 35.5C108.846 35.4347 108.837 35.3693 108.827 35.304C108.818 35.2387 108.823 35.1453 108.841 35.024C108.86 34.9027 108.846 34.8047 108.799 34.73C108.79 34.7207 108.781 34.7113 108.771 34.702C108.762 34.6927 108.753 34.6833 108.743 34.674C108.734 34.674 108.725 34.6693 108.715 34.66C108.706 34.66 108.692 34.66 108.673 34.66C108.617 34.6507 108.58 34.6367 108.561 34.618C108.533 34.5993 108.51 34.576 108.491 34.548C108.473 34.5293 108.454 34.5013 108.435 34.464C108.435 34.4547 108.431 34.4453 108.421 34.436C108.421 34.4267 108.421 34.4173 108.421 34.408V34.324C108.421 34.2867 108.426 34.2587 108.435 34.24C108.435 34.212 108.44 34.1933 108.449 34.184C108.468 34.128 108.487 34.072 108.505 34.016C108.533 33.9693 108.557 33.9227 108.575 33.876L108.603 33.806C108.613 33.7873 108.617 33.7733 108.617 33.764C108.627 33.7547 108.636 33.7453 108.645 33.736L108.897 33.106C108.944 32.9753 108.991 32.8493 109.037 32.728C109.093 32.6067 109.145 32.4947 109.191 32.392C109.21 32.3453 109.229 32.2987 109.247 32.252C109.275 32.2053 109.299 32.1633 109.317 32.126L109.345 32.042L109.485 31.692C109.485 31.6827 109.485 31.678 109.485 31.678C109.495 31.678 109.499 31.6733 109.499 31.664L109.555 31.538L109.513 31.44C109.495 31.4027 109.485 31.384 109.485 31.384C109.42 31.3093 109.327 31.1367 109.205 30.866C109.084 30.5953 108.953 30.2827 108.813 29.928C108.776 29.8533 108.739 29.774 108.701 29.69C108.664 29.606 108.622 29.5127 108.575 29.41C108.51 29.3073 108.445 29.158 108.379 28.962C108.323 28.766 108.263 28.5607 108.197 28.346L107.413 26.498C107.385 26.4233 107.357 26.3533 107.329 26.288C107.301 26.2227 107.273 26.1573 107.245 26.092C107.115 25.7933 106.993 25.5087 106.881 25.238C106.872 25.2287 106.863 25.2007 106.853 25.154C106.844 25.126 106.839 25.0933 106.839 25.056C106.839 25.0373 106.844 25.0233 106.853 25.014C106.853 24.9673 106.867 24.9253 106.895 24.888C106.914 24.86 106.937 24.8367 106.965 24.818C107.021 24.762 107.087 24.7293 107.161 24.72C107.236 24.7013 107.315 24.6967 107.399 24.706C107.493 24.7153 107.572 24.72 107.637 24.72H109.485C109.523 24.72 109.565 24.7247 109.611 24.734C109.658 24.734 109.686 24.734 109.695 24.734L109.779 24.776C109.826 24.7853 109.863 24.8087 109.891 24.846C109.966 24.9207 110.017 25.0093 110.045 25.112C110.073 25.2147 110.097 25.3033 110.115 25.378C110.153 25.462 110.185 25.5507 110.213 25.644C110.251 25.7373 110.288 25.8353 110.325 25.938C110.344 25.9847 110.363 26.0407 110.381 26.106C110.409 26.162 110.433 26.2227 110.451 26.288L110.563 26.61V26.624L110.619 26.764C110.619 26.7733 110.629 26.7967 110.647 26.834C110.694 26.974 110.741 27.114 110.787 27.254C110.843 27.394 110.899 27.534 110.955 27.674L111.081 28.038V28.066C111.1 28.0847 111.109 28.108 111.109 28.136C111.128 28.1453 111.133 28.1547 111.123 28.164C111.114 28.1733 111.128 28.1827 111.165 28.192C111.175 28.1827 111.179 28.1733 111.179 28.164L111.221 28.08L111.263 27.94C111.273 27.9213 111.277 27.9073 111.277 27.898C111.277 27.8887 111.282 27.8793 111.291 27.87L111.333 27.758V27.744L111.543 27.184C111.562 27.1467 111.571 27.1233 111.571 27.114C111.618 26.9647 111.669 26.82 111.725 26.68C111.781 26.54 111.833 26.4093 111.879 26.288C111.889 26.2787 111.893 26.2693 111.893 26.26C111.893 26.2507 111.898 26.2413 111.907 26.232L111.977 26.05C112.005 25.9567 112.033 25.868 112.061 25.784C112.099 25.7 112.131 25.6113 112.159 25.518L112.201 25.42C112.211 25.392 112.22 25.364 112.229 25.336C112.239 25.308 112.248 25.28 112.257 25.252C112.285 25.1773 112.318 25.1027 112.355 25.028C112.393 24.944 112.444 24.874 112.509 24.818C112.612 24.7433 112.747 24.706 112.915 24.706C112.962 24.706 113.013 24.7107 113.069 24.72C113.125 24.72 113.177 24.72 113.223 24.72H115.155C115.23 24.72 115.286 24.734 115.323 24.762C115.342 24.7713 115.356 24.7807 115.365 24.79C115.375 24.7993 115.384 24.8087 115.393 24.818C115.449 24.874 115.477 24.9393 115.477 25.014V25.112C115.477 25.112 115.473 25.1167 115.463 25.126C115.463 25.126 115.463 25.1307 115.463 25.14V25.154L115.449 25.21Z" fill="#D7D5D5"/>
</svg>
