<svg width="99" height="37" viewBox="0 0 99 37" fill="none" xmlns="http://www.w3.org/2000/svg">
<path d="M4.27002 30.943L18.62 30.117L32.97 30.943C32.97 33.2627 31.0899 35.143 28.77 35.143H8.47002C6.15022 35.143 4.27002 33.2628 4.27002 30.943Z" fill="white"/>
<path d="M29.9999 15.4404L27.2811 11.344L10.7051 11.1571L7.24008 15.4404L4.86218 26.0489L18.62 27.0429L32.3778 26.0489L29.9999 15.4404Z" fill="#FCF69D"/>
<path d="M33.32 26.05C34.6731 26.05 35.77 27.1469 35.77 28.5C35.77 29.854 34.6724 30.95 33.32 30.95C31.7756 30.95 5.45885 30.95 3.91997 30.95C2.56687 30.95 1.46997 29.8531 1.46997 28.5C1.46997 27.146 2.5675 26.05 3.91997 26.05C4.52918 26.05 31.9508 26.05 32.3778 26.05H33.32Z" fill="white"/>
<path d="M21.5901 6.44701L18.62 6.85301L15.6499 6.44701C14.9277 4.41869 16.434 2.24701 18.62 2.24701C20.7934 2.24701 22.3163 4.4077 21.5901 6.44701Z" fill="white"/>
<path d="M13.2292 0.849976H11.6241V2.45508C11.6241 4.66148 13.4126 6.44998 15.619 6.44998H15.654L16.7159 2.89398C16.032 1.67388 14.7272 0.849976 13.2292 0.849976Z" fill="white"/>
<path d="M24.0209 0.849976C22.5229 0.849976 21.2181 1.67388 20.5342 2.89398L21.5961 6.44998H21.6311C23.8375 6.44998 25.626 4.66148 25.626 2.45508V0.849976H24.0209Z" fill="white"/>
<path d="M30.8971 13.5116C31.161 14.3229 30.7242 15.1517 29.9899 15.4415C28.9841 15.8423 27.8598 15.1022 27.8598 13.9932V13.9001C27.8598 12.8781 27.0317 12.05 26.0097 12.05C24.9888 12.05 24.1603 12.878 24.1603 13.9001V14.3999C24.1603 15.4219 23.3315 16.25 22.3102 16.25C21.2884 16.25 20.4601 15.4219 20.4601 14.3999V13.9001C20.4601 12.8781 19.632 12.05 18.61 12.05C17.5882 12.05 16.7599 12.8781 16.7599 13.9001V15.7999C16.7599 16.8219 15.9318 17.65 14.9098 17.65C13.8881 17.65 13.0597 16.822 13.0597 15.7999V13.9001C13.0597 12.8781 12.2316 12.05 11.2103 12.05C10.1885 12.05 9.36024 12.8781 9.36024 13.9001V13.9932C9.36024 14.8528 8.66304 15.55 7.80344 15.55C6.92977 15.55 6.24524 14.8373 6.24524 13.9953C6.24524 13.5584 6.24468 13.8381 8.27034 7.52521C8.47894 6.88401 9.07674 6.45001 9.75084 6.45001C11.7539 6.45001 24.7626 6.45001 27.4692 6.45001C28.1433 6.45001 28.7411 6.88401 28.9497 7.52521L30.8971 13.5116Z" fill="#FFD704"/>
<path d="M36.47 28.5C36.47 26.7631 35.0569 25.35 33.32 25.35H32.9383L30.7953 15.7896C31.5203 15.235 31.8858 14.2577 31.5727 13.2953L29.6254 7.30878C29.3222 6.37638 28.4598 5.75002 27.4794 5.75002H24.9656C25.8024 4.90176 26.32 3.73794 26.32 2.45512V0.850024C26.32 0.463484 26.0066 0.150024 25.62 0.150024H24.0149C22.5638 0.150024 21.2058 0.823494 20.3235 1.94489C19.8162 1.69359 19.2404 1.55002 18.62 1.55002C18 1.55002 17.4242 1.69366 16.9166 1.9451C16.0344 0.823564 14.6764 0.150024 13.2251 0.150024H11.62C11.2335 0.150024 10.92 0.463484 10.92 0.850024V2.45512C10.92 3.73794 11.4377 4.90176 12.2744 5.75002H9.76061C8.78019 5.75002 7.91779 6.37638 7.61462 7.30864L5.66729 13.2953C5.35432 14.2575 5.71972 15.235 6.44471 15.7895L4.30173 25.35H3.92002C2.18311 25.35 0.77002 26.7631 0.77002 28.5C0.77002 30.1354 2.02274 31.4832 3.61895 31.6353C3.95341 34.0138 6.00077 35.85 8.47002 35.85H28.77C31.2393 35.85 33.2866 34.0138 33.6211 31.6353C35.2173 31.4832 36.47 30.1354 36.47 28.5ZM24.0149 1.55002H24.92V2.45512C24.92 3.98168 23.8764 5.2687 22.4653 5.6411C22.5332 4.57213 22.1415 3.54495 21.444 2.78706C22.0638 2.01412 23.0069 1.55002 24.0149 1.55002ZM21.0464 5.75002H16.1936C15.9828 4.32041 17.094 2.95002 18.62 2.95002C20.1469 2.95002 21.257 4.32125 21.0464 5.75002ZM12.32 1.55002H13.2251C14.2333 1.55002 15.1764 2.01419 15.7961 2.78713C15.0987 3.54467 14.7065 4.57143 14.7746 5.64103C13.3636 5.26856 12.32 3.98161 12.32 2.45512V1.55002ZM6.99862 13.7284L8.94595 7.74173C9.06103 7.38781 9.38842 7.15009 9.76061 7.15009C11.4412 7.15009 25.7981 7.15009 27.4794 7.15009C27.8515 7.15009 28.1789 7.38781 28.294 7.7418L30.2414 13.7283C30.4217 14.2825 30.0093 14.85 29.4266 14.85C28.9543 14.85 28.57 14.4657 28.57 13.9934C28.5669 13.9863 28.3723 11.35 26.0199 11.35C24.6139 11.35 23.47 12.494 23.47 13.9001V14.4001C23.47 15.0342 22.9541 15.5501 22.3199 15.5501C21.6858 15.5501 21.1699 15.0342 21.1699 14.4001V13.9001C21.17 12.494 20.0261 11.35 18.62 11.35C17.2139 11.35 16.07 12.494 16.07 13.9001V15.8001C16.07 16.4342 15.5541 16.9501 14.92 16.9501C14.2858 16.9501 13.7699 16.4342 13.7699 15.8001V13.9001C13.7699 12.494 12.626 11.35 11.22 11.35C8.70172 11.35 8.67302 13.9864 8.66994 13.9934C8.66994 14.4657 8.28564 14.85 7.81328 14.85C7.2306 14.85 6.81837 14.2824 6.99862 13.7284ZM7.77653 16.2489C7.78885 16.2491 7.80096 16.25 7.81342 16.25C10.0483 16.25 10.0671 13.9071 10.0701 13.9001C10.0701 13.2659 10.586 12.75 11.2201 12.75C11.8542 12.75 12.3701 13.2659 12.3701 13.9001V15.8001C12.3701 17.2062 13.514 18.3501 14.9201 18.3501C16.3262 18.3501 17.4701 17.2062 17.4701 15.8001V13.9001C17.4701 13.2659 17.986 12.75 18.6202 12.75C19.2543 12.75 19.7702 13.2659 19.7702 13.9001V14.4001C19.7702 15.8062 20.9141 16.9501 22.3202 16.9501C23.7263 16.9501 24.8702 15.8062 24.8702 14.4001V13.9001C24.8702 13.2659 25.3861 12.75 26.0202 12.75C26.6543 12.75 27.1702 13.2659 27.1702 13.9001C27.1732 13.9071 27.2022 16.285 29.4638 16.2489L31.5036 25.35H5.73645L7.77653 16.2489ZM28.77 34.45H8.47002C6.7798 34.45 5.36552 33.2456 5.04037 31.65H32.1997C31.8745 33.2456 30.4602 34.45 28.77 34.45ZM33.32 30.25C31.7757 30.25 5.4589 30.25 3.92002 30.25C2.95507 30.25 2.17002 29.465 2.17002 28.5C2.17002 27.5351 2.95507 26.75 3.92002 26.75C5.37889 26.75 31.8611 26.75 33.32 26.75C34.285 26.75 35.07 27.5351 35.07 28.5C35.07 29.465 34.285 30.25 33.32 30.25Z" fill="#C29E18"/>
<path d="M39.1104 14V3.34663H43.6268C44.1169 3.34663 44.5671 3.44666 44.9772 3.64672C45.3873 3.84679 45.7424 4.11687 46.0425 4.45698C46.3526 4.79709 46.5927 5.17721 46.7628 5.59734C46.9328 6.01748 47.0179 6.44761 47.0179 6.88775C47.0179 7.48794 46.8778 8.05812 46.5977 8.59829C46.3176 9.13846 45.9325 9.5786 45.4424 9.91871C44.9522 10.2588 44.372 10.4289 43.7018 10.4289H41.181V14H39.1104ZM41.181 8.6133H43.5818C43.8318 8.6133 44.0569 8.54327 44.257 8.40323C44.457 8.26319 44.6171 8.06312 44.7371 7.80304C44.8572 7.53295 44.9172 7.22786 44.9172 6.88775C44.9172 6.51763 44.8472 6.20253 44.7071 5.94245C44.5771 5.68237 44.402 5.48731 44.182 5.35727C43.9719 5.22722 43.7418 5.1622 43.4917 5.1622H41.181V8.6133ZM48.1889 11.0591V6.13751H50.1996V10.6239C50.1996 11.2241 50.3096 11.6793 50.5297 11.9894C50.7497 12.2895 51.0748 12.4395 51.505 12.4395C51.7651 12.4395 52.0201 12.3895 52.2702 12.2895C52.5303 12.1794 52.7654 12.0194 52.9754 11.8093C53.1955 11.5992 53.3806 11.3342 53.5306 11.0141V6.13751H55.5413V11.7493C55.5413 11.9594 55.5763 12.1094 55.6463 12.1994C55.7263 12.2895 55.8513 12.3445 56.0214 12.3645V14C55.8213 14.03 55.6513 14.05 55.5112 14.06C55.3812 14.08 55.2612 14.09 55.1511 14.09C54.791 14.09 54.4959 14.01 54.2658 13.85C54.0458 13.6799 53.9157 13.4498 53.8757 13.1597L53.8307 12.5295C53.4806 13.0597 53.0305 13.4648 52.4803 13.7449C51.9301 14.015 51.3249 14.15 50.6647 14.15C49.8545 14.15 49.2393 13.89 48.8191 13.3698C48.399 12.8396 48.1889 12.0694 48.1889 11.0591ZM57.0592 10.0688C57.0592 9.30852 57.2092 8.6233 57.5093 8.01311C57.8094 7.39291 58.2246 6.90276 58.7547 6.54264C59.2849 6.18253 59.8901 6.00247 60.5703 6.00247C61.1505 6.00247 61.6707 6.14752 62.1308 6.43761C62.6009 6.7177 62.9661 7.07781 63.2261 7.51795V3.04654H65.2368V11.7493C65.2368 11.9594 65.2718 12.1094 65.3418 12.1994C65.4118 12.2895 65.5319 12.3445 65.7019 12.3645V14C65.3518 14.07 65.0667 14.105 64.8467 14.105C64.4865 14.105 64.1864 14.015 63.9464 13.8349C63.7163 13.6549 63.5863 13.4198 63.5562 13.1297L63.5262 12.6346C63.2361 13.1247 62.841 13.4998 62.3409 13.7599C61.8507 14.02 61.3355 14.15 60.7954 14.15C60.2552 14.15 59.755 14.045 59.2949 13.8349C58.8448 13.6249 58.4496 13.3348 58.1095 12.9647C57.7794 12.5946 57.5193 12.1644 57.3293 11.6743C57.1492 11.1741 57.0592 10.6389 57.0592 10.0688ZM63.2261 11.1191V9.2435C63.1261 8.9534 62.9661 8.69332 62.746 8.46325C62.5259 8.23318 62.2808 8.05312 62.0108 7.92308C61.7407 7.78303 61.4706 7.71301 61.2005 7.71301C60.8904 7.71301 60.6103 7.77803 60.3602 7.90807C60.1102 8.03811 59.8901 8.21317 59.7 8.43324C59.52 8.65331 59.3799 8.90839 59.2799 9.19848C59.1899 9.48857 59.1449 9.79367 59.1449 10.1138C59.1449 10.4339 59.1949 10.739 59.2949 11.0291C59.4049 11.3091 59.56 11.5542 59.76 11.7643C59.9601 11.9744 60.1902 12.1394 60.4503 12.2594C60.7203 12.3795 61.0104 12.4395 61.3205 12.4395C61.5106 12.4395 61.7007 12.4095 61.8907 12.3495C62.0908 12.2795 62.2758 12.1894 62.4459 12.0794C62.626 11.9594 62.781 11.8193 62.911 11.6593C63.0511 11.4892 63.1561 11.3091 63.2261 11.1191ZM66.7302 10.0688C66.7302 9.30852 66.8803 8.6233 67.1804 8.01311C67.4805 7.39291 67.8956 6.90276 68.4258 6.54264C68.9559 6.18253 69.5611 6.00247 70.2413 6.00247C70.8215 6.00247 71.3417 6.14752 71.8018 6.43761C72.272 6.7177 72.6371 7.07781 72.8972 7.51795V3.04654H74.9078V11.7493C74.9078 11.9594 74.9428 12.1094 75.0128 12.1994C75.0829 12.2895 75.2029 12.3445 75.373 12.3645V14C75.0228 14.07 74.7378 14.105 74.5177 14.105C74.1576 14.105 73.8575 14.015 73.6174 13.8349C73.3873 13.6549 73.2573 13.4198 73.2273 13.1297L73.1973 12.6346C72.9072 13.1247 72.512 13.4998 72.0119 13.7599C71.5217 14.02 71.0066 14.15 70.4664 14.15C69.9262 14.15 69.4261 14.045 68.9659 13.8349C68.5158 13.6249 68.1207 13.3348 67.7806 12.9647C67.4504 12.5946 67.1904 12.1644 67.0003 11.6743C66.8202 11.1741 66.7302 10.6389 66.7302 10.0688ZM72.8972 11.1191V9.2435C72.7971 8.9534 72.6371 8.69332 72.417 8.46325C72.1969 8.23318 71.9519 8.05312 71.6818 7.92308C71.4117 7.78303 71.1416 7.71301 70.8715 7.71301C70.5614 7.71301 70.2813 7.77803 70.0313 7.90807C69.7812 8.03811 69.5611 8.21317 69.3711 8.43324C69.191 8.65331 69.051 8.90839 68.9509 9.19848C68.8609 9.48857 68.8159 9.79367 68.8159 10.1138C68.8159 10.4339 68.8659 10.739 68.9659 11.0291C69.076 11.3091 69.231 11.5542 69.4311 11.7643C69.6311 11.9744 69.8612 12.1394 70.1213 12.2594C70.3914 12.3795 70.6815 12.4395 70.9916 12.4395C71.1816 12.4395 71.3717 12.4095 71.5617 12.3495C71.7618 12.2795 71.9469 12.1894 72.1169 12.0794C72.297 11.9594 72.452 11.8193 72.5821 11.6593C72.7221 11.4892 72.8271 11.3091 72.8972 11.1191ZM76.8814 14V6.13751H78.892V14H76.8814ZM76.8814 5.04217V3.04654H78.892V5.04217H76.8814ZM88.0132 14H86.0025V9.5886C86.0025 8.95841 85.8925 8.49826 85.6724 8.20817C85.4524 7.91808 85.1473 7.77303 84.7571 7.77303C84.487 7.77303 84.212 7.84305 83.9319 7.9831C83.6618 8.12314 83.4167 8.3182 83.1966 8.56828C82.9766 8.80836 82.8165 9.08845 82.7165 9.40855V14H80.7059V6.13751H82.5214V7.59297C82.7215 7.25287 82.9766 6.96778 83.2867 6.7377C83.5968 6.49763 83.9519 6.31757 84.352 6.19753C84.7621 6.06749 85.1923 6.00247 85.6424 6.00247C86.1326 6.00247 86.5327 6.0925 86.8428 6.27256C87.1629 6.44261 87.403 6.67768 87.563 6.97778C87.7331 7.26787 87.8481 7.59798 87.9081 7.96809C87.9782 8.33821 88.0132 8.71333 88.0132 9.09345V14ZM92.8374 14.045C92.3173 14.045 91.8371 13.945 91.397 13.7449C90.9668 13.5349 90.5917 13.2448 90.2716 12.8746C89.9615 12.5045 89.7214 12.0794 89.5514 11.5992C89.3813 11.1191 89.2963 10.6089 89.2963 10.0688C89.2963 9.49858 89.3863 8.96841 89.5664 8.47825C89.7464 7.9881 89.9965 7.55796 90.3166 7.18785C90.6467 6.80773 91.0318 6.51763 91.472 6.31757C91.9221 6.1075 92.4173 6.00247 92.9575 6.00247C93.5677 6.00247 94.1028 6.14251 94.563 6.4226C95.0231 6.69269 95.4032 7.0578 95.7033 7.51795V6.13751H97.4589V13.6249C97.4589 14.4051 97.2688 15.0703 96.8887 15.6205C96.5186 16.1807 96.0034 16.6058 95.3432 16.8959C94.683 17.196 93.9328 17.3461 93.0925 17.3461C92.2422 17.3461 91.522 17.201 90.9318 16.9109C90.3416 16.6308 89.8365 16.2307 89.4163 15.7105L90.5117 14.6452C90.8118 15.0153 91.1869 15.3054 91.637 15.5155C92.0972 15.7255 92.5823 15.8306 93.0925 15.8306C93.5226 15.8306 93.9128 15.7506 94.2629 15.5905C94.623 15.4405 94.9081 15.2004 95.1181 14.8703C95.3382 14.5502 95.4482 14.135 95.4482 13.6249V12.6346C95.1882 13.0847 94.818 13.4348 94.3379 13.6849C93.8677 13.925 93.3676 14.045 92.8374 14.045ZM93.5126 12.4395C93.7327 12.4395 93.9428 12.4045 94.1428 12.3345C94.3429 12.2645 94.528 12.1694 94.698 12.0494C94.8681 11.9293 95.0181 11.7893 95.1482 11.6293C95.2782 11.4592 95.3782 11.2891 95.4482 11.1191V9.2435C95.3282 8.9334 95.1582 8.66331 94.9381 8.43324C94.728 8.20317 94.4879 8.02811 94.2179 7.90807C93.9578 7.77803 93.6827 7.71301 93.3926 7.71301C93.0825 7.71301 92.8024 7.77803 92.5523 7.90807C92.3023 8.03811 92.0872 8.22317 91.9071 8.46325C91.7271 8.69332 91.587 8.9534 91.487 9.2435C91.397 9.52358 91.3519 9.81868 91.3519 10.1288C91.3519 10.4489 91.407 10.749 91.517 11.0291C91.627 11.3091 91.7771 11.5542 91.9671 11.7643C92.1672 11.9744 92.3973 12.1394 92.6574 12.2594C92.9274 12.3795 93.2125 12.4395 93.5126 12.4395Z" fill="#D7D5D5"/>
<path d="M42.5795 33V22.814H46.1088C47.1991 22.814 48.1077 23.0436 48.8346 23.5026C49.571 23.9522 50.121 24.5643 50.4844 25.339C50.8479 26.1041 51.0296 26.9554 51.0296 27.8927C51.0296 28.9256 50.8287 29.8246 50.427 30.5898C50.0253 31.3549 49.4563 31.9479 48.7198 32.3688C47.9834 32.7896 47.113 33 46.1088 33H42.5795ZM49.7241 27.8927C49.7241 27.1275 49.5806 26.4484 49.2937 25.8555C49.0163 25.2625 48.6098 24.7986 48.0742 24.4639C47.5386 24.1291 46.8835 23.9617 46.1088 23.9617H43.8707V31.8523H46.1088C46.893 31.8523 47.553 31.6801 48.0886 31.3358C48.6242 30.9819 49.0307 30.5085 49.308 29.9155C49.5854 29.313 49.7241 28.6387 49.7241 27.8927ZM55.9622 33.1435C55.3979 33.1435 54.8814 33.043 54.4128 32.8422C53.9537 32.6318 53.552 32.3496 53.2077 31.9957C52.8729 31.6323 52.6099 31.2163 52.4186 30.7476C52.2369 30.279 52.146 29.7816 52.146 29.2556C52.146 28.5478 52.3086 27.9022 52.6338 27.3188C52.959 26.7354 53.4085 26.2667 53.9824 25.9128C54.5658 25.559 55.2305 25.382 55.9766 25.382C56.7321 25.382 57.3873 25.5638 57.942 25.9272C58.5063 26.2811 58.9415 26.7497 59.2475 27.3331C59.5632 27.907 59.721 28.5287 59.721 29.1982C59.721 29.2938 59.7162 29.3895 59.7066 29.4851C59.7066 29.5712 59.7018 29.6381 59.6923 29.686H53.4803C53.5185 30.1737 53.6524 30.6089 53.882 30.9915C54.1211 31.3645 54.4271 31.661 54.8001 31.881C55.1731 32.0914 55.5748 32.1966 56.0052 32.1966C56.4643 32.1966 56.8947 32.0818 57.2964 31.8523C57.7077 31.6227 57.9898 31.3215 58.1429 30.9485L59.2332 31.2497C59.0706 31.6132 58.8267 31.9384 58.5015 32.2253C58.1859 32.5122 57.8081 32.737 57.3682 32.8996C56.9378 33.0622 56.4691 33.1435 55.9622 33.1435ZM53.4372 28.8108H58.5446C58.5063 28.3231 58.3676 27.8927 58.1285 27.5197C57.8894 27.1466 57.5834 26.8549 57.2103 26.6445C56.8373 26.4341 56.4261 26.3289 55.9766 26.3289C55.5366 26.3289 55.1301 26.4341 54.7571 26.6445C54.3841 26.8549 54.078 27.1466 53.8389 27.5197C53.6094 27.8927 53.4755 28.3231 53.4372 28.8108ZM61.153 22.5271H62.4155V31.0632C62.4155 31.4745 62.4729 31.7279 62.5877 31.8236C62.7025 31.9192 62.8411 31.9671 63.0037 31.9671C63.2046 31.9671 63.3959 31.9479 63.5776 31.9097C63.7593 31.8618 63.9123 31.814 64.0367 31.7662L64.2375 32.7991C64.0271 32.8852 63.7784 32.957 63.4915 33.0143C63.2046 33.0717 62.9511 33.1004 62.7312 33.1004C62.2434 33.1004 61.856 32.9617 61.5691 32.6844C61.2917 32.407 61.153 32.0197 61.153 31.5223V22.5271ZM65.2293 33V25.5111H66.4918V33H65.2293ZM65.2293 24.1052V22.5271H66.4918V24.1052H65.2293ZM70.6877 33L67.7467 25.5111H69.0666L71.4194 31.7949L73.7722 25.5111H75.006L72.065 33H70.6877ZM79.3312 33.1435C78.7669 33.1435 78.2505 33.043 77.7818 32.8422C77.3227 32.6318 76.921 32.3496 76.5767 31.9957C76.242 31.6323 75.979 31.2163 75.7877 30.7476C75.6059 30.279 75.5151 29.7816 75.5151 29.2556C75.5151 28.5478 75.6777 27.9022 76.0029 27.3188C76.3281 26.7354 76.7776 26.2667 77.3514 25.9128C77.9349 25.559 78.5996 25.382 79.3456 25.382C80.1012 25.382 80.7563 25.5638 81.3111 25.9272C81.8753 26.2811 82.3105 26.7497 82.6166 27.3331C82.9322 27.907 83.09 28.5287 83.09 29.1982C83.09 29.2938 83.0852 29.3895 83.0757 29.4851C83.0757 29.5712 83.0709 29.6381 83.0613 29.686H76.8493C76.8876 30.1737 77.0215 30.6089 77.251 30.9915C77.4901 31.3645 77.7962 31.661 78.1692 31.881C78.5422 32.0914 78.9439 32.1966 79.3743 32.1966C79.8334 32.1966 80.2638 32.0818 80.6655 31.8523C81.0767 31.6227 81.3589 31.3215 81.5119 30.9485L82.6022 31.2497C82.4396 31.6132 82.1958 31.9384 81.8706 32.2253C81.5549 32.5122 81.1772 32.737 80.7372 32.8996C80.3068 33.0622 79.8382 33.1435 79.3312 33.1435ZM76.8063 28.8108H81.9136C81.8753 28.3231 81.7367 27.8927 81.4976 27.5197C81.2585 27.1466 80.9524 26.8549 80.5794 26.6445C80.2064 26.4341 79.7951 26.3289 79.3456 26.3289C78.9056 26.3289 78.4991 26.4341 78.1261 26.6445C77.7531 26.8549 77.4471 27.1466 77.208 27.5197C76.9784 27.8927 76.8445 28.3231 76.8063 28.8108ZM88.453 26.6158C87.8218 26.6254 87.2623 26.788 86.7745 27.1036C86.2963 27.4097 85.9567 27.8353 85.7559 28.3804V33H84.4934V25.5111H85.6698V27.2471C85.928 26.7306 86.2676 26.3145 86.6884 25.9989C87.1188 25.6737 87.5683 25.492 88.037 25.4538C88.1326 25.4538 88.2139 25.4538 88.2809 25.4538C88.3478 25.4538 88.4052 25.4585 88.453 25.4681V26.6158ZM90.0495 35.0372C90.1738 35.0468 90.2982 35.0563 90.4225 35.0659C90.5469 35.085 90.6425 35.0946 90.7094 35.0946C90.8625 35.0946 90.9964 35.042 91.1111 34.9368C91.2259 34.8316 91.3503 34.6259 91.4842 34.3199C91.6276 34.0234 91.8093 33.5834 92.0293 33L88.8587 25.5111H90.193L92.7179 31.7232L94.999 25.5111H96.2472L92.6032 34.9655C92.5171 35.1854 92.388 35.3911 92.2158 35.5824C92.0532 35.7832 91.8428 35.941 91.5846 36.0558C91.3263 36.1706 91.0155 36.228 90.6521 36.228C90.566 36.228 90.4751 36.2232 90.3795 36.2136C90.2934 36.204 90.1834 36.1849 90.0495 36.1562V35.0372Z" fill="#D7D5D5"/>
</svg>
