<?xml version="1.0" standalone="no"?>
<!DOCTYPE svg PUBLIC "-//W3C//DTD SVG 20010904//EN"
 "http://www.w3.org/TR/2001/REC-SVG-20010904/DTD/svg10.dtd">
<svg version="1.0" xmlns="http://www.w3.org/2000/svg"
 width="500.000000pt" height="500.000000pt" viewBox="0 0 500.000000 500.000000"
 preserveAspectRatio="xMidYMid meet">

<g transform="translate(0.000000,500.000000) scale(0.100000,-0.100000)"
fill="#000000" stroke="none">
<path d="M2120 4057 c0 -78 12 -120 50 -181 l31 -48 -60 -57 c-64 -61 -95
-114 -111 -188 l-11 -48 -72 -22 c-89 -27 -181 -85 -230 -145 -35 -43 -87
-141 -87 -165 0 -7 -10 -13 -22 -13 -31 0 -84 -33 -99 -62 -20 -37 -16 -208 6
-242 20 -30 63 -56 94 -56 20 0 20 -7 23 -512 l3 -513 30 -60 c16 -33 54 -83
83 -112 93 -91 66 -87 716 -91 556 -3 572 -2 639 18 58 18 79 31 124 76 30 30
66 79 81 111 l27 58 3 511 3 510 42 10 c67 15 87 54 87 173 0 120 -17 155 -83
173 -39 10 -46 16 -60 55 -21 56 -81 146 -119 178 -47 40 -112 75 -186 100
-56 20 -68 29 -76 52 -36 118 -76 181 -147 232 -35 26 -37 30 -22 42 32 27 65
121 71 202 l5 78 -59 -7 c-84 -8 -173 -31 -212 -54 -41 -25 -41 -25 -52 4 -5
14 -18 30 -30 36 -17 9 -24 7 -44 -13 -12 -13 -25 -29 -28 -37 -3 -11 -9 -10
-29 3 -40 26 -139 54 -211 60 l-68 6 0 -62z m209 -55 c30 -15 66 -42 80 -60
l25 -34 -40 20 c-21 11 -55 23 -74 27 l-35 7 23 -24 c30 -32 28 -38 -11 -38
-48 0 -97 58 -97 115 0 26 2 27 38 21 20 -4 61 -19 91 -34z m421 14 c0 -17
-63 -86 -78 -86 -6 0 -9 7 -6 15 10 25 -9 17 -85 -35 -41 -28 -71 -43 -67 -34
3 8 6 20 6 24 0 17 62 81 94 97 65 34 136 43 136 19z m-364 -191 c21 -16 22
-15 -38 -18 -27 -2 -78 15 -72 24 9 14 88 10 110 -6z m284 7 c0 -5 -26 -13
-57 -19 -56 -10 -57 -10 -34 8 23 19 91 27 91 11z m-385 -138 c25 -18 39 -20
88 -15 52 7 59 5 72 -16 9 -13 25 -23 39 -23 13 0 29 -6 35 -14 7 -8 23 -17
36 -20 27 -7 79 -79 72 -99 -2 -7 0 -24 4 -40 5 -18 4 -25 -2 -21 -6 3 -16 -2
-23 -12 -14 -18 -41 -10 -30 9 5 9 3 9 -6 0 -11 -10 -11 -15 1 -30 7 -10 9
-15 5 -11 -5 5 -22 -6 -37 -23 -28 -31 -55 -32 -45 0 4 9 -8 1 -24 -17 -17
-18 -28 -37 -25 -42 8 -13 -28 1 -37 14 -4 6 -10 8 -13 4 -4 -3 2 -15 12 -25
20 -20 10 -44 -15 -35 -6 2 -12 -2 -12 -8 0 -9 -4 -9 -17 1 -15 11 -16 11 -6
-1 17 -19 -3 -56 -22 -40 -8 7 -16 7 -19 2 -7 -11 19 -25 51 -27 51 -2 31 -15
-24 -15 -61 0 -61 0 -110 53 -72 79 -117 174 -121 259 -4 58 0 76 22 122 33
68 94 125 110 104 6 -7 25 -23 41 -34z m445 -28 c0 -20 -19 -31 -32 -18 -6 6
-7 15 -4 21 10 16 36 13 36 -3z m-163 -21 c7 -20 -2 -29 -21 -22 -9 4 -13 13
-10 22 8 19 23 19 31 0z m83 -64 c0 -11 -5 -23 -11 -27 -15 -9 -33 12 -26 30
9 23 37 20 37 -3z m170 -15 c0 -21 -21 -31 -30 -15 -5 7 -6 17 -4 21 9 14 34
9 34 -6z m-110 -110 c0 -19 -14 -28 -34 -20 -13 5 -14 9 -5 20 15 18 39 18 39
0z m-658 -94 c15 -37 46 -91 68 -119 l40 -53 -210 0 c-116 0 -210 3 -210 6 0
19 59 100 101 138 38 34 149 93 179 95 3 1 17 -30 32 -67z m1001 19 c5 -5 -17
-2 -49 8 -32 10 -60 24 -62 30 -4 13 94 -21 111 -38z m-263 9 c0 -11 -4 -20
-9 -20 -14 0 -23 18 -16 30 10 17 25 11 25 -10z m-315 -49 c3 -5 2 -12 -3 -15
-5 -3 -9 1 -9 9 0 17 3 19 12 6z m178 -7 c9 -10 -4 -34 -19 -34 -8 0 -14 9
-14 20 0 19 19 27 33 14z m29 -96 c-15 -15 -26 -4 -18 18 5 13 9 15 18 6 9 -9
9 -15 0 -24z m-152 -4 c0 -14 -21 -19 -33 -7 -9 9 13 34 24 27 5 -3 9 -12 9
-20z m737 -171 l-118 -4 30 -24 c16 -14 34 -39 40 -55 l10 -30 -825 0 -824 0
0 60 0 60 903 -2 c496 -1 849 -4 784 -5z m-1251 -277 l34 -34 0 -150 c0 -136
2 -152 21 -176 28 -36 90 -37 123 -1 22 24 24 35 28 165 3 137 4 140 31 165
15 14 23 20 17 13 -6 -7 -6 -16 1 -25 8 -9 8 -13 0 -13 -6 0 -11 5 -11 11 0 5
-5 7 -12 3 -9 -6 -9 -9 0 -12 7 -2 10 -8 6 -13 -6 -11 9 -12 20 -2 16 16 58
13 84 -7 23 -19 35 -21 80 -15 40 5 59 3 78 -9 23 -16 24 -22 24 -114 0 -130
16 -166 78 -170 36 -3 47 1 72 27 l30 29 0 132 c0 98 3 129 12 124 8 -5 9 -2
5 11 -8 20 10 48 25 39 5 -3 1 -12 -9 -21 -16 -13 -16 -13 5 -3 14 7 21 17 18
26 -3 8 1 14 9 14 9 0 12 -6 9 -17 -5 -17 -5 -17 9 -1 12 15 17 16 32 4 23
-16 25 -27 33 -143 6 -78 11 -95 31 -117 27 -28 76 -35 113 -15 27 14 48 68
48 123 0 35 6 50 30 76 26 28 34 31 77 28 l48 -3 2 -446 c2 -420 1 -447 -16
-480 -11 -19 -24 -33 -31 -31 -6 1 -8 -2 -5 -9 9 -14 -20 -41 -76 -71 l-44
-23 -565 0 c-560 0 -565 0 -605 22 -51 27 -89 67 -112 118 -16 36 -18 83 -21
533 l-3 492 122 0 121 0 34 -34z m334 -16 c8 -5 12 -11 10 -14 -3 -2 -14 2
-24 10 -22 15 -10 19 14 4z"/>
<path d="M2338 3633 c7 -3 16 -2 19 1 4 3 -2 6 -13 5 -11 0 -14 -3 -6 -6z"/>
<path d="M2408 3563 c7 -3 16 -2 19 1 4 3 -2 6 -13 5 -11 0 -14 -3 -6 -6z"/>
<path d="M2337 3419 c7 -7 15 -10 18 -7 3 3 -2 9 -12 12 -14 6 -15 5 -6 -5z"/>
<path d="M2250 3367 c0 -23 28 -33 43 -17 9 10 9 11 -2 5 -9 -5 -19 -1 -28 10
-12 17 -13 17 -13 2z"/>
<path d="M2810 2739 c0 -6 -7 -8 -16 -5 -8 3 -12 2 -9 -4 10 -15 35 -12 35 5
0 8 -2 15 -5 15 -3 0 -5 -5 -5 -11z"/>
<path d="M3114 2135 c0 -55 1 -76 3 -47 2 29 2 74 0 100 -2 26 -3 2 -3 -53z"/>
<path d="M3112 1975 c0 -16 2 -22 5 -12 2 9 2 23 0 30 -3 6 -5 -1 -5 -18z"/>
<path d="M3169 1783 c-13 -16 -12 -17 4 -4 9 7 17 15 17 17 0 8 -8 3 -21 -13z"/>
<path d="M3129 1773 c-13 -16 -12 -17 4 -4 16 13 21 21 13 21 -2 0 -10 -8 -17
-17z"/>
<path d="M2012 3908 c-23 -23 -7 -68 24 -68 14 0 44 27 44 40 0 13 -30 40 -44
40 -6 0 -17 -5 -24 -12z"/>
<path d="M2906 3905 c-9 -9 -16 -20 -16 -25 0 -15 32 -41 48 -38 24 5 39 35
26 56 -15 23 -38 26 -58 7z"/>
<path d="M3674 3311 c-103 -63 -160 -241 -119 -378 16 -53 82 -133 110 -133
13 0 15 -24 14 -162 0 -90 -6 -284 -12 -432 -13 -281 -10 -315 28 -330 37 -14
74 -6 96 22 24 30 24 -43 2 669 l-6 221 40 20 c130 67 150 289 39 440 -57 78
-129 102 -192 63z m52 -112 c-39 -46 -58 -86 -76 -164 l-17 -70 -8 39 c-16 79
31 193 89 216 36 15 38 11 12 -21z"/>
<path d="M1081 3306 c-9 -10 -11 -78 -9 -241 l3 -226 45 -43 c25 -24 52 -45
59 -47 12 -4 12 -67 -2 -408 -8 -222 -13 -411 -10 -420 24 -67 119 -70 144 -3
10 25 -3 639 -16 778 -5 49 -4 51 32 75 68 45 73 66 73 310 0 185 -2 218 -16
230 -11 9 -20 10 -32 2 -15 -9 -18 -39 -22 -227 -5 -214 -5 -218 -29 -237 -41
-33 -96 -28 -133 12 l-28 29 0 209 c0 181 -2 210 -16 215 -23 9 -30 8 -43 -8z"/>
<path d="M1212 3308 c-8 -8 -12 -66 -12 -195 0 -164 2 -183 18 -192 11 -6 24
-6 35 0 15 9 17 30 17 192 0 181 -4 207 -35 207 -6 0 -16 -5 -23 -12z"/>
</g>
</svg>
